<?xml version="1.0" encoding="UTF-8"?>
<svg id="Layer_1" data-name="Layer 1" xmlns="http://www.w3.org/2000/svg" xmlns:xlink="http://www.w3.org/1999/xlink" viewBox="0 0 1152 648">
  <defs>
    <style>
      .cls-1 {
        fill: #daf0f4;
      }

      .cls-2 {
        fill: #22120b;
      }

      .cls-3 {
        fill: #71d0f6;
      }

      .cls-4 {
        fill: url(#Ikke-navngivet_forløb_3);
      }

      .cls-5 {
        fill: #55b948;
      }

      .cls-6 {
        fill: #13ab4b;
      }

      .cls-7 {
        fill: #3e1e0f;
      }

      .cls-8 {
        clip-path: url(#clippath);
      }

      .cls-9 {
        fill: none;
      }

      .cls-10 {
        fill: url(#Ikke-navngivet_forløb_2);
      }

      .cls-11 {
        fill: #1d5429;
      }

      .cls-12 {
        fill: #fee602;
      }

      .cls-13 {
        fill: #172b18;
      }

      .cls-14 {
        fill: #f6b71d;
      }
    </style>
    <clipPath id="clippath">
      <rect class="cls-9" width="1152" height="648"/>
    </clipPath>
    <linearGradient id="Ikke-navngivet_forløb_2" data-name="Ikke-navngivet forløb 2" x1="568.46" y1="562.54" x2="591.39" y2="16.55" gradientUnits="userSpaceOnUse">
      <stop offset="0" stop-color="#9edae6"/>
      <stop offset=".34" stop-color="#779fc9"/>
      <stop offset=".79" stop-color="#4756a5"/>
      <stop offset="1" stop-color="#343a97"/>
    </linearGradient>
    <linearGradient id="Ikke-navngivet_forløb_3" data-name="Ikke-navngivet forløb 3" x1="579.39" y1="647.75" x2="573.62" y2="446.73" gradientUnits="userSpaceOnUse">
      <stop offset="0" stop-color="#79c143"/>
      <stop offset=".5" stop-color="#49983f"/>
      <stop offset=".85" stop-color="#2d803e"/>
    </linearGradient>
  </defs>
  <g class="cls-8">
    <g>
      <rect class="cls-10" x="-.47" width="1157.89" height="648.21"/>
      <ellipse class="cls-4" cx="579.63" cy="655.94" rx="597.22" ry="216.6"/>
    </g>
    <g>
      <ellipse class="cls-14" cx="984.85" cy="102.38" rx="117.66" ry="76.32"/>
      <ellipse class="cls-12" cx="984.85" cy="104.85" rx="84.28" ry="61.43"/>
    </g>
    <g>
      <ellipse class="cls-3" cx="333.09" cy="64.82" rx="130.91" ry="27.43"/>
      <ellipse class="cls-1" cx="306.09" cy="74.12" rx="130.91" ry="27.43"/>
    </g>
    <g>
      <ellipse class="cls-3" cx="764.53" cy="113.84" rx="149.74" ry="28.47"/>
      <ellipse class="cls-1" cx="795.41" cy="104.19" rx="149.74" ry="28.47"/>
    </g>
    <g>
      <g>
        <polygon class="cls-7" points="1044.5 548.37 973.05 532.78 1035.98 379.56 1107.43 395.15 1044.5 548.37"/>
        <ellipse class="cls-13" cx="1084.88" cy="271.3" rx="73.32" ry="53.44"/>
        <ellipse class="cls-13" cx="1040.88" cy="350.95" rx="70.08" ry="51.08"/>
        <ellipse class="cls-13" cx="1108.6" cy="366.73" rx="82.1" ry="59.84"/>
        <ellipse class="cls-13" cx="1036.97" cy="306.97" rx="82.1" ry="59.84"/>
        <ellipse class="cls-13" cx="1156.27" cy="285.06" rx="82.1" ry="59.84"/>
        <ellipse class="cls-13" cx="1155.12" cy="333.67" rx="82.1" ry="59.84"/>
      </g>
      <path class="cls-11" d="m1041.78,383.21c-4.43-.41-9.17-.4-13.52-1.33s-8.57-4.25-12.43-6.53c-3.65-2.16-7.39-3.95-9.54-7.77s-3.23-8.72-2.56-13.24c.5-3.32-.33-6.6-3.42-8.41-2.61-1.53-7.01-1.39-9.02,1.16-11.39,14.52,3.5,26.17,14.37,34.68,2.8,2.2,5.54,4.06,9.08,4.85,3.88.87,7.81-.01,11.72.36,3.24.31,6.41,1.2,9.67,1.36,3.76.19,6.68-.96,10.2-1.93h-3.96c-2.36-3.18-3.16-3.71-2.38-1.57.08.89-.08,1.74-.48,2.55-2.85,9.17,11.52,13.09,14.36,3.96,1.81-5.83,1.35-14.91-4.64-18.37-3.37-1.95-6.45-.72-9.82.16-2.6.67-5.12.08-7.72-.34-3.43-.54-6.66-.81-10.12-.72-4.09.1-5.29-.76-8.5-3.32-1.42-1.13-12.67-9.34-11.25-11.15l-12.44-7.24c-2.07,13.87,2.37,27.54,14.59,35.21,5.46,3.43,11.24,7.44,17.29,9.71s13.85,2.18,20.52,2.8c9.54.88,9.48-14.01,0-14.89h0Z"/>
      <path class="cls-11" d="m1022.99,340.03c-12.15-2.41-27.07-4.43-34.16-15.76-1.8-2.88-3.7-5.58-5.99-8.09-2.12-2.33-4.65-3.72-3.32-6.97s4.12-6.47,6.17-9.49c2.61-3.85,5.23-7.7,7.84-11.55,4.85-7.15-5.77-14.77-11.69-9.02-6.78,6.58-12.8,13.86-17.91,21.81l12.85,7.51c2.79-5.13,6.52-9.1,11.08-12.73-3.9-3.01-7.79-6.01-11.69-9.02-6.86,12.78-4.76,26.28,3.97,37.5,2.49,3.2,7.91,2.56,10.53,0,3.17-3.1,2.46-7.37,0-10.53-4.49-5.76-5.06-13.08-1.64-19.46,4.21-7.85-5.27-14.12-11.69-9.02-5.47,4.34-10.07,9.59-13.41,15.74-4.59,8.45,7.68,15.57,12.85,7.51,4.45-6.92,9.68-13.07,15.58-18.79-3.9-3.01-7.79-6.01-11.69-9.02-2.99,4.4-5.97,8.8-8.96,13.2s-6.08,8.48-7.25,13.55c-2.41,10.42,5.68,15.27,10.61,22.9s9.64,12.8,17.72,16.49,17.28,5.8,26.24,7.58,13.36-12.49,3.96-14.36h0Z"/>
      <path class="cls-11" d="m1138.07,277.49c9.58,0,9.6-14.89,0-14.89s-9.6,14.89,0,14.89h0Z"/>
      <path class="cls-11" d="m1129.69,250.82c5.96-1.71,11.82-.9,17.72.66s12.33,3.42,17.7,6.4c4.2,2.33,5.1,5.69,6.85,9.89,2.05,4.92,5.01,8.95,9.84,11.44,5.09,2.63,13.63-1.91,10.93-8.41-3.27-7.87-5.83-16.98-10.48-24.16-4.15-6.41-12.23-11.28-19.27-13.96-7.66-2.91-16.78-1.39-24.67-.23s-14.83,3.4-20.68,8.61c-7.17,6.38,3.39,16.88,10.53,10.53,3.6-3.21,9.09-4.11,13.72-4.73,5.08-.68,11.85-2.05,16.68.03s9.96,5.12,12.29,9.85c2.86,5.8,5.05,12.04,7.53,18.01l10.93-8.41c-4.26-2.2-4.7-7.76-6.81-11.7-3.09-5.78-8.48-9.24-14.36-11.73-13.06-5.54-28.29-10.52-42.42-6.46-9.19,2.64-5.28,17.01,3.96,14.36h0Z"/>
    </g>
    <g>
      <g>
        <ellipse class="cls-5" cx="958.57" cy="250.83" rx="61.03" ry="50.31"/>
        <ellipse class="cls-5" cx="878.65" cy="253.48" rx="65.39" ry="47.66"/>
        <polygon class="cls-7" points="924.57 490.63 850.3 485.63 870.51 326.36 944.78 331.37 924.57 490.63"/>
        <ellipse class="cls-5" cx="954.05" cy="319.84" rx="59.74" ry="48.19"/>
        <ellipse class="cls-5" cx="878.65" cy="324.08" rx="65.39" ry="47.66"/>
      </g>
      <ellipse class="cls-5" cx="864.03" cy="283.9" rx="75.79" ry="55.24"/>
      <ellipse class="cls-5" cx="954.05" cy="279.97" rx="82.1" ry="59.84"/>
      <ellipse class="cls-5" cx="895.67" cy="242.65" rx="82.1" ry="59.84"/>
      <path class="cls-6" d="m892.89,349.54c-14.01.31-34.07,1.88-43.85-10.56-9.23-11.73.4-25.08,10.33-32.51l-10.18-10.18c-6.93,15.21-11.6,32.59-.18,46.9,4.53,5.67,10.71,9.75,17.57,12.07,3.44,1.17,7.01,1.56,10.6,1.92,1.52.15,3.04.26,4.54.58.78.16,1.56.37,2.31.62-.31-.28-.66-.49-1.04-.62l-1.02-3.76.08.83,3.69-6.43c-8.57,5.38-21.74-.28-23.48-10.22-1.1-6.31.61-13.22,2.13-19.31,1.93-7.75,4.91-14.91,7.98-22.25s.9-13.79-6.14-17.63c-4.63-2.52-8.9-4.82-11.9-9.34-5.45-8.22-3.25-17.39,3.91-23.63,6.2-5.4-.67-13.49-7.24-12.44-12.85,2.06-23.73,13.19-23.26,26.65.25,7.04,3.6,13.3,7.84,18.76,2.32,2.98,4.87,5.72,7.57,8.36,1.59,1.55,3.23,3.06,4.85,4.57.41.38,4.23,3.45,4.22,3.63l1.02-3.76c-2.22,3.66-6.78,6.86-9.82,9.87-3.54,3.5-7.09,6.99-10.63,10.49-6.83,6.74,3.7,17.27,10.53,10.53,3.76-3.71,7.53-7.43,11.29-11.14,3.53-3.48,8.07-6.91,10.79-11.07,6.4-9.79-5.6-17.66-11.72-23.63-4.63-4.51-11.79-11.07-11.01-18.23.7-6.5,6.41-9.71,12.3-10.65l-7.24-12.44c-10.18,8.87-14.19,23.03-9.19,35.72,2.72,6.89,7.44,12.53,13.47,16.79,1.12.79,2.28,1.52,3.48,2.19.85.46,1.71.9,2.58,1.32,1.52,1.18,1.79.88.79-.91-.35,2.17-2.18,4.84-3.03,6.9-.94,2.28-1.84,4.58-2.65,6.91-5.31,15.21-10.75,35.9.49,49.76,8.9,10.97,27.5,14.68,39.59,7.09,2.07-1.3,3.95-3.83,3.69-6.43-1.55-15.3-20.71-10.09-30.46-15.87-13.64-8.07-10.01-22.94-4.44-35.17,1.39-3.05,1.34-6.52-1.16-9.02-2.15-2.15-6.41-3.11-9.02-1.16-15.74,11.78-28.75,31.85-16.89,51.09,12.15,19.71,37.35,20.18,57.92,19.72,9.57-.21,9.6-15.1,0-14.89h0Z"/>
      <path class="cls-6" d="m795.78,298.13c7.96,28.76,48.91,30.69,68.79,14.44,4.8-3.92,1-13.4-5.26-12.71-13.83,1.52-26.65-3.45-39.01-9.14-3-1.38-9.92-3.21-7.22-7.39,3.23-5,11.54-6.63,16.83-7.96,9.29-2.34,5.35-16.7-3.96-14.36-9.11,2.29-19.15,5.67-24.88,13.62-5.36,7.44-4.75,17.36,2.35,23.42s16.68,9.05,24.94,12.09c9.88,3.63,20.41,5.76,30.95,4.6-1.75-4.24-3.51-8.47-5.26-12.71-11.41,9.33-39.2,9.14-43.9-7.87-2.55-9.22-16.92-5.31-14.36,3.96h0Z"/>
      <path class="cls-6" d="m974.94,340.65c-2.27,3.35-8.32,3.8-11.92,3.77-5.97-.05-11.74-1.92-17.33-3.86-3.24-1.12-10.3-2.53-11.43-6.39s3.07-9.59,4.99-12.6l-13.87-3.76c-2.2,27.28,31.95,36.72,52.99,31.65,9.31-2.24,5.37-16.6-3.96-14.36-11.95,2.88-35.5-.47-34.14-17.29.63-7.79-10.18-9.53-13.87-3.76-4.36,6.82-8.53,15.13-6.62,23.45,2.15,9.31,10.54,13.29,18.75,16.28,15.46,5.63,38.2,10.68,49.26-5.61,5.39-7.95-7.5-15.41-12.85-7.51h0Z"/>
      <path class="cls-6" d="m991.3,221.57c-3.62-2.24-7.23-5-11.25-6.49-4.42-1.64-10.17-.91-12.72,3.53-6,10.44,12.79,18.62,15.86,6.78,1.01-3.89-1.28-8.08-5.2-9.16s-8.14,1.29-9.16,5.2l-.08.3,1.91-3.28-.19.17,3.28-1.91c2.78-.63,4.91.15,6.39,2.34l1.02,3.76-.03-.29-1.02,3.76-.74.99-3.28,1.91s-.97,0-1.02-.1c.37.66,2.25,1.37,2.92,1.78l5.78,3.58c3.42,2.12,8.19.74,10.18-2.67s.76-8.06-2.67-10.18h0Z"/>
    </g>
    <g>
      <g>
        <g>
          <polygon class="cls-7" points="204.51 531.81 137.97 556.38 38.83 413.69 105.37 389.13 204.51 531.81"/>
          <ellipse class="cls-13" cx="-27.99" cy="310.64" rx="73.32" ry="53.44"/>
          <ellipse class="cls-13" cx="15.36" cy="390.49" rx="70.08" ry="51.08"/>
          <ellipse class="cls-13" cx="79.37" cy="367.93" rx="82.1" ry="59.84"/>
          <ellipse class="cls-13" cx="-29.03" cy="360.55" rx="82.1" ry="59.84"/>
          <ellipse class="cls-13" cx="36.77" cy="284.79" rx="82.1" ry="59.84"/>
          <ellipse class="cls-13" cx="81.86" cy="320.61" rx="82.1" ry="59.84"/>
        </g>
        <path class="cls-11" d="m126.98,353.54c3.7,5.26,8.94,11.69,9.23,18.42.16,3.7-1.76,6.18-3.49,9.25s-2.73,5.96-3.84,9.13c-2.1,6-8.28,6.56-13.9,7.77-8.08,1.74-16.18,3.41-24.27,5.11-8.13,1.71-6.43,15.21,1.98,14.62,11.39-.79,22.7-2.42,33.83-4.96l-3.96-14.36c-6.83,1.9-13.61,2.77-20.69,2.75l1.98,14.62c12.9-3.58,25.82-11.46,31.39-24.15,1.63-3.71,1.06-7.95-2.67-10.18-3.14-1.88-8.57-1-10.18,2.67-4.12,9.38-12.92,14.65-22.5,17.31-8.07,2.24-6.48,14.6,1.98,14.62s16.62-1.05,24.65-3.28c9.26-2.58,5.37-16.48-3.96-14.36-9.86,2.25-19.79,3.72-29.88,4.42l1.98,14.62c9.65-2.03,19.46-3.7,29.01-6.18,8.96-2.33,15.81-6.66,19.07-15.64,3-8.26,8.85-15.34,8.3-24.57s-5.97-17.67-11.23-25.15-18.39-.34-12.85,7.51h0Z"/>
        <path class="cls-11" d="m27.09,244.31c11.37-1.48,23.75,4.42,32.74,11.14,3.56,2.66,3.69,5.36,4.2,9.52.67,5.45,2.25,10.45,6.74,13.96,6.1,4.76,13.46.33,12.44-7.24-1.12-8.33-.85-18.91-4.87-26.45-3.25-6.1-10.06-12.22-16.34-15.09-6.81-3.11-15.72-3-23.1-2.86s-14.64,1.29-21.01,5.11c-8.21,4.92-.73,17.8,7.51,12.85,4.36-2.61,9.3-3.05,14.3-3.08s11.62-.55,16.09,1.44c4.02,1.79,8.97,6.54,10.09,10.76,1.8,6.76,2.04,14.35,2.97,21.28l12.44-7.24c-3.8-2.97-2.48-8.69-3.75-12.97-1.8-6.09-6.29-10.3-11.47-13.68-11.22-7.32-25.28-14.11-38.99-12.32-4.02.52-7.4,3.05-7.44,7.44-.04,3.62,3.46,7.96,7.44,7.44h0Z"/>
      </g>
      <ellipse class="cls-2" cx="137.67" cy="499.28" rx="19.65" ry="26.7" transform="translate(-342.49 305.19) rotate(-52.57)"/>
    </g>
    <g>
      <g>
        <g>
          <ellipse class="cls-5" cx="265.37" cy="245.39" rx="49.73" ry="61.74" transform="translate(-13.86 474.9) rotate(-82.18)"/>
          <ellipse class="cls-5" cx="188.79" cy="262.29" rx="65.39" ry="47.66"/>
          <polygon class="cls-7" points="313.31 483.93 239.63 492.39 205.49 334.39 279.17 325.93 313.31 483.93"/>
          <ellipse class="cls-5" cx="284.27" cy="313.1" rx="47.77" ry="60.26" transform="translate(-56.68 563.29) rotate(-84.03)"/>
          <ellipse class="cls-5" cx="212.61" cy="330.72" rx="65.39" ry="47.66"/>
        </g>
        <ellipse class="cls-5" cx="274.11" cy="278.58" rx="82.1" ry="59.84"/>
        <ellipse class="cls-5" cx="200.41" cy="303.04" rx="82.1" ry="59.84"/>
        <ellipse class="cls-5" cx="206.89" cy="251.95" rx="82.1" ry="59.84"/>
      </g>
      <path class="cls-6" d="m249.78,342.66c-16.24-.9-32.58-1.73-48.68-4.18-13.74-2.09-28.37-4.94-40.35-12.37-3.8-2.36-7.53-5.3-9.48-9.43-.4-.84-.61-2.54-.59-2.69.16-1.57.86-2.95,1.77-4.21,7.06-9.73,21.54-14.17,32.44-17.52l-7.24-12.44c-9.33,8.84-20.08,20.37-17.65,34.35,1.57,9.04,8.6,15.67,16.02,20.42,9.98,6.38,21.89,10.02,33.51,11.91,5.93.96,11.93,1.4,17.86,2.32,2.35.36,4.71.76,7.02,1.35.8.2,1.93.7,2.6.71-.18-.25.05-.14.69.33-1.09-.95-1.71-2.22-1.87-3.82l5.46-7.18c-13.18,3.51-28.24,1.37-41.06-2.71-5.41-1.72-11.86-4.16-15.2-9.06s-.66-10.64,1.66-15.27c3.78-7.53,8.74-14.33,14.47-20.48s16.56-13.02,10.7-22.25c-4.3-6.77-15.11-7.86-21.89-10.95-5.65-2.57-11.86-5.89-15.69-10.96-1.35-1.78-2.07-3.2-2.38-5.21-.1-.63.16-2.44.63-3.43,2.53-5.4,9.6-8.47,14.99-10.44,7.54-2.75,6.88-14.72-1.98-14.62-15.67.17-44.66,4.76-45.59,25.51-.41,9.21,7.13,16.74,13.79,22.01,4.8,3.79,9.89,7.14,15.1,10.32,2.73,1.67,5.48,3.3,8.24,4.93,1.13.67,7.69,3.86,7.77,4.26l.75-5.74c-.33.73-8.11,3.25-9.41,3.8-3.83,1.63-7.67,3.26-11.5,4.89-7.67,3.26-15.33,6.51-23,9.77-3.73,1.58-4.48,7.01-2.67,10.18,2.19,3.85,6.51,4.23,10.18,2.67,8.25-3.51,16.51-7.01,24.76-10.52,3.83-1.63,7.67-3.26,11.5-4.89,3.49-1.48,7.5-2.61,10.42-5.11,7.32-6.24,1.76-14.07-4.54-18.13s-13.5-7.9-20.07-12.15c-5.16-3.34-10.87-6.98-14.62-11.97-.53-.71-1.2-1.75-1.53-2.36-.15-.29-.55-2.35-.32-.9-.1-.64-.11-1.25.87-2.61,5.6-7.77,20.58-8.99,29.84-9.09l-1.98-14.62c-14.05,5.12-30.85,16.37-25.6,33.81,2.3,7.63,8.24,13.4,14.59,17.86,4.03,2.83,8.45,5,12.97,6.92,2.64,1.12,5.3,2.13,8.01,3.06,1.39.48,5.62,1.51,6.12,2.5l-1.02-3.76-.12,1.27,1.02-3.76c-1.75,3.15-5.82,5.88-8.3,8.51s-4.61,5.12-6.75,7.83c-4.35,5.51-8.29,11.34-11.32,17.68-5.55,11.62-6.83,24.26,3.16,33.99,8.24,8.03,20.36,11.62,31.4,13.68,12.29,2.29,25.32,3.12,37.52-.13,3.32-.88,5.26-3.9,5.46-7.18.61-9.74-12.34-11.83-19.38-12.92-11.72-1.8-23.39-2.59-34.7-6.47-7.2-2.47-16-6.43-20.38-12.67-5.94-8.45,5.53-18.92,11.91-24.97,5.35-5.07-.16-14.62-7.24-12.44-14.51,4.46-31.57,10.6-40.75,23.52-7.58,10.67-3.96,23.4,5.26,31.73,12.58,11.36,30.27,15.98,46.56,18.84,19.07,3.35,38.46,4.48,57.77,5.55,9.57.53,9.54-14.36,0-14.89h0Z"/>
    </g>
  </g>
</svg>