<?xml version="1.0" encoding="UTF-8"?>
<svg id="Layer_2" data-name="Layer 2" xmlns="http://www.w3.org/2000/svg" viewBox="0 0 1242.2 998.1">
  <defs>
    <style>
      .cls-1 {
        stroke: #fff;
        stroke-miterlimit: 10;
        stroke-width: 9px;
      }
    </style>
  </defs>
  <g id="Layer_1-2" data-name="Layer 1">
    <g>
      <polyline class="cls-1" points="276.63 203.34 20.42 212.73 241.28 666.18 304.58 663.2 575.28 192.11 312.6 198.36 310.73 303.01 393.73 300.01 286.73 478.01 195.73 313.01 274.47 310.02 276.63 203.34"/>
      <path class="cls-1" d="m659.23,191.51c20.53-2.79,35.93-6.48,38-7,18.6-4.66,41.17-23.25,46-48,6.12-31.35-17.76-64.73-45-72-21.85-5.83-46.93,3.72-71,20-21.18,14.33-45.09,39.4-46.5,39.5-.85.06,17.37-21.48,18.5-24.5,8.84-23.57,10.23-64.48-13-84-22.68-19.06-56.84-7.75-59-7-42.5,14.75-58.42,68.82-54,104,1.16,9.26,3.58,28.48,18,41,2.06,1.79,4.66,3.29,7.47,4.55-1.54-.61-3.19-1.29-4.97-2.05-9.76-4.18-8.28-11.51-16-13-12.88-2.49-33.7,3.05-45.5,6.5-32.5,9.5-48.04,24.26-52,36-6.69,19.83,5.1,45,22,56,16.57,10.79,38.67,8.35,53.95,6.67,4.33-.48,8.03-1.89,11.05-1.67,1.76.13,3.55.11,5.33,0-.94.19-1.89.36-2.83.51-13,2-20.87,11.78-24,17-6,10-11.91,16.14-9.5,47.5.5,6.5,7.18,22.15,27,30,24.77,9.8,50.08-8.32,65-19,7.78-5.57,30.21-21.62,39-50,6.82-22.02,2.47-41.88,4-42,1.98-.16-.73,33.92,18,65,4.68,7.76,17.83,28.91,44,39,2.13.82,47.67,17.59,77-10,15.77-14.84,18.26-34.41,19-41,3.76-33.41-16.52-66.32-42-79-19.88-9.89-43.11-7.56-43-10,.05-1.26,6.27-1.82,15-3Zm-98,2.5c-9.11,0-18.5-6.48-18.5-12s8.89-11,18-11,19,5.48,19,11-9.39,12-18.5,12Z"/>
      <path class="cls-1" d="m1227.34,474.95c2.09-83.53-51.72-153.52-90.77-185.8-25.89-21.4-85.43-66.18-160.9-59.93l5.46-56.03-124.15,21.38-2.16,22.11-10.14,104-23.42,196.69-9.19,94.22,114.03,21.16-3.29-36.05c63.47,47.02,211.92,38.32,259.97-13.78,7.5-8.14,43.07-48.59,44.56-107.95Zm-102.85-29.34c-7.13,53.85-99.92,100.04-178.17,63.16l18.83-185.02c90.95-10.74,166.48,68.01,159.35,121.87Z"/>
      <path class="cls-1" d="m567.86,606.83c91,2,160.43.27,337.61,15.79l-23.12-133.86-98.29,12.88-81.31,11.36,92.68-209.11,52.77-89.19-129.88-40.39-135.12,339.14s-21.68,93.23-15.33,93.37Z"/>
      <polygon class="cls-1" points="405.73 603.01 580.67 609.19 628.39 274.69 508.23 275.01 405.73 603.01"/>
      <polygon class="cls-1" points="548.73 993.01 307.73 993.01 306.13 855.69 377.37 851.39 355.91 738.96 292.73 818.01 243.73 740.01 206.73 854.01 276.95 854.45 276.95 993.01 5.73 993.01 125.03 505.51 215.31 505.51 305.27 677.17 398.82 516.67 497.72 505.51 548.73 993.01"/>
      <path class="cls-1" d="m734.21,615.82c1.86-4.57,3.29-10.26,2.93-16.73-1.01-18.44-21.39-37.4-21-32,1,14,.87,25.52-6,28-2.9,1.05-6.98-2.06-9-5-3.62-5.28-1.91-11.98,0-19,6.75-24.87,7.73-26.22,9-32,1.04-4.72,13.79-27.89,7-47-2.31-6.49-11,80-14-24-.83-28.8-22-21-33-28-9.58-6.09-13.98-17.25-1-36,9-13,14-14,9-13-9.71,1.94-25,11-27,26-1.88,14.1-4.14,33.77,18,70,7.18,11.74,15.11,18.95,14,31-.77,8.35-5.87,18.79-12,19-3.78.13-7.37-3.67-9-7-3.78-7.72,1.13-16.57,0-17-.88-.33-4.19,4.85-7,12-1.42,3.62-4.65,11.83-5,21-.8,21.2,1.45,36.86,10,39,24,6-16,48-18,22l.1-.15c-.89-2.88-1.81-18.22-2.41-19.74-2.81-7.15-6.12-12.33-7-12-1.13.43,3.78,9.28,0,17-.13.26-.27,3.18-.42,6.35-.22,4.7-4.1,8.39-8.8,8.39h-7.06c-2.53-3.82-4.3-9.1-4.73-13.74-1.11-12.05,6.82-19.26,14-31,22.14-36.23,11.79-68.05,9-82-1-5-4.51-18.09-13-13-5,3,2.22,3.13,3,6,6,22,.63,35.14-5,45-4,7-3,6.04-19,30-7.8,11.67-11.69,17.51-14,24-6.79,19.11-3.04,37.28-2,42,.99,4.51,1.8,6.32,5.32,18.7l-11.69,23.23c-.09-1.81-9.06,3.57-11.33-6.05-2.89-12.28.8-40.15,1-43,.39-5.4-18.99,40.56-20,59-.36,6.58,10.81,20.46,12.72,25.07l-151.92,302.07,240.52-.32,4-88.89-85.31-.19,39-71.81h112l37.59,72-84.62.29,6.62,88.71,229.88.2c-34.8-90.66-34.47-90.13-112.47-270.13-7.9-18.22-2-60-18-96-11.24-25.29-40-60-29-40,3.91,19.17,15.57,45.05,17,59,2.23,21.71-7.6,26.68-12,26l-.56-.73c-7.16-9.2-14.19-6.93-18.73-22.39-2.09-7.12-2.63-14.61-1.84-22l1.2-11.16Zm-106.07,147.27l33.59-72.07,40.41,72.07h-74Z"/>
      <path class="cls-1" d="m1236,812.98c-12.18-79.51-75.03-136.71-117.51-160.69-28.16-15.89-92.17-48.24-162.63-29.52l-4.32-54.02-114.02,41.3,1.7,21.32,8.02,100.27,11.14,190.36,5.26,70.84,111.64.72-7.23-13.61c68.12,33.8,207.32.39,244.01-57.12,5.73-8.98,32.58-53.35,23.93-109.85Zm-238.64,75.7l-12.67-158.49c44.18-5.79,74.66.09,93.22,11.61,20.06,12.44,26.83,21.93,37.96,48.13,33.9,79.85-36.05,101.19-118.51,98.76Z"/>
    </g>
  </g>
</svg>