<?xml version="1.0" encoding="UTF-8"?>
<svg id="Layer_2" data-name="Layer 2" xmlns="http://www.w3.org/2000/svg" viewBox="0 0 510.11 491.47">
  <defs>
    <style>
      .cls-1 {
        stroke-width: 10.41px;
      }

      .cls-1, .cls-2, .cls-3, .cls-4, .cls-5 {
        stroke-miterlimit: 10;
      }

      .cls-1, .cls-6 {
        fill: #fff;
      }

      .cls-1, .cls-3, .cls-4, .cls-5 {
        stroke: #000;
      }

      .cls-2 {
        stroke: #fff;
        stroke-width: .37px;
      }

      .cls-7 {
        fill: #ffe5cc;
      }

      .cls-8, .cls-5 {
        fill: #e5e5e5;
      }

      .cls-9 {
        fill: #8b6239;
      }

      .cls-10 {
        fill: #414328;
      }

      .cls-11, .cls-3 {
        fill: #5a5e39;
      }

      .cls-12 {
        font-family: PermanentMarker-Regular, 'Permanent Marker';
        font-size: 11.92px;
      }

      .cls-3 {
        stroke-width: 1.68px;
      }

      .cls-4 {
        stroke-width: 10.48px;
      }

      .cls-13 {
        letter-spacing: -.03em;
      }

      .cls-5 {
        stroke-width: 3.39px;
      }
    </style>
  </defs>
  <g id="Layer_1-2" data-name="Layer 1">
    <g>
      <g>
        <ellipse class="cls-4" cx="267.2" cy="245.74" rx="237.67" ry="240.49"/>
        <ellipse class="cls-1" cx="242.88" cy="245.74" rx="237.67" ry="240.49"/>
      </g>
      <g>
        <path class="cls-8" d="m58.55,186.43c-.28,6.26-.45,9.55,1.35,15.55,2.21,7.35,4.73,14.87,7.43,20.96,2.84,6.39,4.05,8.79,8.1,14.87s12.1,13.29,18.18,16.72c5.8,3.27,12.33,4.29,18.95,4.93h0c-1.26.32-10.28-1.39-5.4,6.75,4.05,6.76,27.01,4.73,33.78,5.12,18.25,1.05,36.64.95,54.64-2.27,3.46-.62,6.12-1.17,9.49-2.18.95-.29,2.93-2.93,2.71-3.41-1.19-2.54-3.38-4.6-5.99-5.62h0c.38-.28.85-.39,1.31-.34,11.47,1.37,17.14-6.01,27.63-13.62,9.64-6.99,15.15-17.84,18.62-29.24,2.88-9.45,4.26-19.38,1.64-28.91"/>
        <path d="m57.28,186.43c-.15,3.21-.33,6.44.06,9.64.42,3.49,1.49,6.82,2.54,10.16,2.22,7.06,4.75,13.98,7.87,20.7,2.41,5.21,5.36,10.32,9.02,14.76,3.96,4.8,8.76,9.11,13.95,12.55,6.56,4.35,14.15,5.75,21.85,6.49.44.04.88-.27,1.1-.63h0c.6-1.01-.38-2.12-1.44-1.88.05-.01.2,0-.12,0-.19,0-.38,0-.57,0-.52,0-1.04,0-1.55.01-1.2.05-2.48.19-3.56.77-3.15,1.69-1.83,5.61-.28,7.98s4.68,3.56,7.43,4.23c3.66.88,7.48,1.16,11.23,1.29s7.47.09,11.21.05c4.1-.04,8.17.24,12.27.4,13.2.51,26.46.28,39.56-1.43,3.53-.46,7.05-1.01,10.54-1.7,1.62-.32,3.22-.67,4.81-1.1,1.21-.32,2.46-.54,3.43-1.37.78-.67,1.5-1.56,1.99-2.46.56-1.04.47-1.75-.1-2.76-1.44-2.56-3.72-4.41-6.41-5.52l.3,2.33c.5-.37,1.32-.09,1.89-.05.77.05,1.55.06,2.32.03,1.42-.06,2.85-.26,4.23-.61,2.68-.68,5.2-1.94,7.51-3.44,2.56-1.67,4.94-3.61,7.33-5.51,2.67-2.13,5.5-4.08,8.11-6.27,9.81-8.24,15.23-20.87,18.13-33.09,1.92-8.08,2.45-16.51.28-24.59-.42-1.58-2.88-.91-2.45.68,1.89,7.02,1.61,14.34.13,21.41-1.32,6.29-3.38,12.54-6.21,18.32-2.64,5.38-6.05,10.4-10.5,14.45-2.39,2.18-5.1,3.99-7.64,5.99-2.4,1.9-4.75,3.86-7.26,5.62s-5.14,3.25-8.1,4c-1.54.39-3.11.56-4.69.53-1.4-.02-3.13-.56-4.36.35-.93.69-.74,1.89.3,2.33s2.11,1.11,2.97,1.91c.7.66,1.89,1.79,2.1,2.78-.06-.29.06-.38-.08-.15-.11.18-.21.36-.33.53-.21.3-.44.59-.69.86-.75.81-1.6.93-2.66,1.21-5.42,1.46-11.03,2.3-16.59,2.97-11.74,1.42-23.6,1.67-35.42,1.3-4.2-.13-8.4-.5-12.6-.5-3.07,0-6.14.08-9.21.05-3.51-.03-7.04-.14-10.52-.56-2.8-.34-5.88-.83-8.35-2.29-1.28-.76-2.03-1.81-2.61-3.18-.26-.61-.55-1.38-.43-2.05.04-.25.22-.48.44-.62,1.54-1.03,3.68-.29,5.45-.68l-1.44-1.87h0c.37-.2.73-.41,1.1-.62-6.75-.65-13.56-1.8-19.42-5.41-5.09-3.14-9.7-7.29-13.63-11.77-8.08-9.22-12.64-21.44-16.38-32.93-1.2-3.68-2.53-7.42-3.15-11.26-.55-3.43-.32-6.94-.16-10.39.07-1.64-2.47-1.63-2.55,0h0Z"/>
      </g>
      <path class="cls-5" d="m251.3,183.05c-1.34-10.82-45.91-22.99-99.23-22.99s-93.86,10.74-93.86,22.99c0,6.08,11.4,23.66,98.55,24.34,53.32.41,95.86-13.61,94.53-24.34Z"/>
      <path class="cls-3" d="m60.91,188.53c9.19,8.97,43.9,18.19,91.75,18.19,45.59.11,85.67-8.04,95.69-19.2,0,0-42.68-19.62-95.7-18.87-47.32.67-79.96,4.38-91.74,19.88"/>
      <path class="cls-10" d="m97.85,195.79c-1.38-.64-2.77-1.29-4.12-1.99-.41-.22-.83-.44-1.23-.68-.15-.09-.29-.2-.44-.28-.4-.22.4.43,0-.01-.28-.32.35.56.17.23.2.37.25.52.25.96,0,.7-.13.7-.04.43-.34,1.1-.26.47-.13.35.28-.25.53-.7.72-1.02.45-.75.67-1.62,1.08-2.39.6-1.14,1.39-2.1,2.32-2.98,2.01-1.88,4.6-3.19,7.15-4.18,6.81-2.67,13.95-2.96,21.15-3.56,8.02-.67,16.09-.44,24.13-.25,7.47.17,14.95.16,22.4.65,6.56.43,13.11,1.33,19.33,3.55,1.76.63,2.72.8,4.09,1.64.58.36.5.28.91.67.39.36.67.68.82.92.33.51.44.73.59,1.27.09.31.18.63.21.95-.06-.53-.03-.04-.04.08-.02.42.23-.6.02-.21-.04.07-.1.28-.1.37-.04.44.32-.46.04-.09-.09.12-.14.28-.22.4-.09.15-.64.83-.19.32-.3.35-.62.67-.96.97-.52.47.42-.28-.18.15-.19.14-.39.27-.59.39-.44.27-.9.52-1.37.74-.31.14-.8.33-1.32.49-.76.24-1.53.43-2.3.58-3.58.68-7.39.46-11.02.55s-7.58.18-11.38.2c-4.02.01-8.04-.08-12.05-.1-8.16-.05-16.32-.01-24.48-.22-4.53-.12-9.16-.58-13.46-2.05-.06-.02-.77-.31-.23-.08-.19-.08-.37-.17-.56-.26-.27-.14-.53-.3-.79-.45-.15-.09-.54-.45,0,.02-.05-.04-.32-.22-.32-.29,0,.09-.55-.95.06.12-.08-.13-.16-.26-.24-.4.33.64.19.44.12.2.19.66.05.55.06.26,0,.11-.1.41-.12.45.32-.65-.32.18.12-.21.11-.09.22-.2.31-.3.47-.49-.24.13.13-.11.68-.44,1.38-.83,2.13-1.16-.49.22.26-.1.29-.11.24-.09.48-.18.73-.27.63-.22,1.26-.42,1.9-.59,1.16-.33,2.34-.6,3.52-.83,1.29-.25,2.16-.41,3.12-.49,4.52-.36,9.05-.62,13.58-.87,5.98-.32,11.97-.59,17.96-.7,3.2-.06,6.4-.09,9.59.06,2.43.11,4.3.2,6.51.79.37.1.74.22,1.11.35.57.2-.48-.26.02,0,.13.07.27.15.41.21.13.06.23.17.36.23-.54-.26-.29-.26-.11-.07.52.54-.1-.45.18.22.18.41-.19-.64-.08-.2.09.33-.02.3.01-.25.01-.2.11-.61.42-.95-.24.26-.28.05.13-.08-.12.04-.24.2-.38.21-.52.05.54-.17-.01,0-.25.08-.49.16-.74.23-2.15.58-3.92.65-6.29.79-3.23.2-6.47.28-9.71.37-3.41.1-6.81.2-10.22.39s-3.25,5.23,0,5.05c7.19-.4,14.41-.3,21.59-.88,3.31-.27,11.5-.71,10.1-6.08-1.08-4.17-6.54-4.82-10.06-5.18-6.58-.67-13.31-.32-19.91-.08-6.21.23-12.42.56-18.62.95-4.88.31-9.68.67-14.4,2.08-3.3.99-8.73,2.93-8.63,7.21.1,4.53,6.43,5.99,9.86,6.65,4.56.88,9.17,1.1,13.81,1.17s9.6.1,14.4.12c11.21.07,22.41.16,33.62-.15,6-.16,13.3-.15,17.72-4.99,1.19-1.3,2.22-3.03,2.18-4.86-.07-2.88-1.69-5.55-3.93-7.27-1.69-1.3-3.64-2-5.65-2.65-3.08-1.01-6.11-1.94-9.3-2.54-7.74-1.45-15.64-1.72-23.49-1.89-8.5-.18-17.01-.5-25.52-.39-4.33.05-8.62.37-12.94.73s-8.35.56-12.45,1.4c-6.57,1.34-13.99,4.29-18.13,9.81-.44.59-.85,1.21-1.19,1.87-.18.35-.34.72-.49,1.08-.09.21-.18.42-.26.63-.03.09-.31.73-.09.28.19-.39-.19.3-.28.44-.13.19-.28.37-.41.56-1,1.45-.88,3.2.39,4.46,1.77,1.75,4.57,2.7,6.76,3.72,1.24.58,2.72.35,3.46-.91.64-1.09.34-2.88-.91-3.46h0Z"/>
      <g>
        <path class="cls-11" d="m232.48,204.63c-7.02,37.9-11.3,76.32-12.77,114.84-.13,3.35-.23,6.76.69,9.98,1.27,4.46,4.39,8.17,7.85,11.26,11.85,10.61,27.99,15.25,43.83,16.58,15.84,1.34,31.76-.31,47.66-.61,25.34-.49,51.92,2.18,74.92-8.5,5.28-2.45,10.55-5.92,12.76-11.31,1.62-3.96,1.36-8.41,1.08-12.68-2.26-33.85-6.74-67.24-9-101.08-.32-4.75-1.26-9.69-1.7-14.43s.69-6.37-4.24-7.64c-11.18-2.88-31.16-2.4-42.7-2.39-32.87.02-65.74.19-98.61.51-5.1.05-18.95-.66-19.8,5.28"/>
        <path d="m230.05,203.96c-4.28,23.13-7.55,46.44-9.8,69.85-1.12,11.68-1.98,23.38-2.59,35.09-.15,2.87-.28,5.73-.4,8.6s-.3,5.59-.03,8.37c.51,5.45,2.9,10.04,6.59,14.03,6.67,7.21,15.75,12.13,24.96,15.27,9.77,3.34,20.13,4.7,30.42,5.05,11.72.4,23.43-.47,35.14-.88,10.8-.38,21.6-.08,32.4-.22s21.23-.71,31.61-2.94c5.09-1.09,10.07-2.62,14.87-4.64,4.39-1.85,8.73-4.05,12.18-7.4,3.81-3.71,5.6-8.46,5.82-13.73.23-5.59-.52-11.3-.97-16.87-.93-11.76-2.08-23.5-3.25-35.23-1.17-11.73-2.37-23.46-3.4-35.2-.51-5.84-.99-11.69-1.4-17.54s-1.37-11.25-1.87-16.91c-.28-3.26.22-6.79-2.95-8.82-1.56-1-3.52-1.38-5.31-1.75-1.98-.4-3.99-.69-6-.93-8.83-1.08-17.79-1.11-26.67-1.09-22.19.05-44.37.09-66.56.22-11.87.07-23.74.16-35.61.27-3.61.03-7.24-.02-10.85.07-3.35.08-6.85.28-10.06,1.3-2.8.89-5.77,2.67-6.3,5.81-.23,1.34.35,2.72,1.76,3.11,1.21.33,2.88-.41,3.11-1.76.04-.26.1-.5.19-.75-.25.76.31-.43.09-.12-.18.25.31-.3.39-.38.1-.11.47-.34.04-.04.15-.1.29-.19.44-.28.79-.47.68-.39,1.39-.63s1.49-.43,2.24-.58c2.71-.54,5.88-.63,8.95-.64,9.84-.03,19.69-.15,29.53-.22,22.99-.17,45.98-.26,68.98-.28,8.47,0,16.95-.15,25.41.12,4.29.13,8.58.36,12.84.85,1.74.2,3.48.46,5.2.81.83.17,1.66.35,2.48.57.22.06.44.13.66.19.06.02.67.23.36.11.2.08.88.46.75.39-.28-.15.1.04.12.13.05.34-.19-.53-.01,0,.13.38-.07-.45.08.23.03.13.05.25.08.38-.02-.09-.05-.55-.01-.06.03.39.05.78.06,1.17.08,2.13.28,4.22.55,6.33.71,5.48,1.27,10.91,1.68,16.42.85,11.44,1.92,22.86,3.04,34.27,1.12,11.32,2.29,22.63,3.34,33.96.52,5.59,1.01,11.18,1.45,16.77s1.17,11.11.95,16.62c-.18,4.56-1.99,8.23-5.46,11.17s-7.81,4.79-11.98,6.34c-9.39,3.5-19.34,5.05-29.31,5.7s-20.52.45-30.78.44c-11.01,0-21.98.62-32.98,1-19.78.69-40.89-.03-58.25-10.71-3.93-2.42-7.66-5.3-10.69-8.8-1.43-1.65-2.73-3.56-3.49-5.63-.87-2.35-1.07-4.78-1.06-7.27.01-5.65.41-11.33.73-16.97s.68-11.13,1.1-16.7c1.73-22.59,4.43-45.11,8.09-67.47.89-5.42,1.84-10.84,2.84-16.24.25-1.34-.37-2.72-1.76-3.11-1.23-.34-2.86.42-3.11,1.76h0Z"/>
      </g>
      <g>
        <path class="cls-7" d="m406.28,293.57c-9.17,12.14-26.38,18.51-41.47,20.41-15.08,1.9-32.38,3.26-47.56,2.51-16.51-.82-30.82-4.16-47.48-5.09-17.34-.98-32.81-3.53-49.18-9.34l5.94-62.82c22.15,9.56,45.36,12.4,69.48,12.64,24.12.23,48.19-2.09,72.3-2.47,5.51-.09,11.16-.1,16.3-2.08,5.42-2.09,11.53-5.79,15.75-9.78l5.94,56.03Z"/>
        <path d="m405.46,293.09c-6.6,8.65-16.83,13.93-27.06,17.03-5.3,1.61-10.7,2.57-16.19,3.23-6.41.77-12.84,1.39-19.28,1.81-13.15.87-26.23.73-39.33-.82-6.55-.78-13.07-1.77-19.62-2.57s-13.51-1.19-20.28-1.74c-14.62-1.18-29.01-4-42.85-8.89l.7.92c.67-7.09,1.34-14.17,2.01-21.26,1.07-11.28,2.13-22.56,3.2-33.85.24-2.57.49-5.15.73-7.72l-1.44.82c21.09,9.06,43.91,12.27,66.72,12.72,24.88.49,49.69-1.96,74.55-2.41,6.34-.11,12.71-.11,18.66-2.58,5.49-2.28,10.7-5.51,15.05-9.57l-1.63-.67c.67,6.29,1.33,12.58,2,18.87,1.07,10.08,2.13,20.16,3.2,30.23.24,2.31.49,4.62.73,6.93.13,1.21,2.04,1.22,1.91,0-.67-6.29-1.33-12.58-2-18.87-1.07-10.08-2.13-20.16-3.2-30.23-.24-2.31-.49-4.62-.73-6.93-.09-.81-.99-1.28-1.63-.67-3.87,3.62-8.48,6.52-13.31,8.69-5.33,2.4-10.92,2.77-16.69,2.87-12.03.2-24.03.81-36.04,1.42-23.35,1.17-46.97,2.23-70.18-1.28-12.51-1.89-24.82-5.15-36.45-10.14-.69-.3-1.36.05-1.44.82-.67,7.09-1.34,14.17-2.01,21.26-1.07,11.28-2.13,22.56-3.2,33.85-.24,2.57-.49,5.15-.73,7.72-.04.43.33.79.7.92,12.54,4.43,25.55,7.18,38.78,8.54,6.89.71,13.81.93,20.69,1.68s13.12,1.69,19.68,2.54,13.57,1.59,20.4,1.82,13.37.07,20.04-.3,13.41-.98,20.09-1.74c5.58-.64,11.1-1.4,16.52-2.87,11.6-3.14,23.15-8.86,30.58-18.59.75-.98-.91-1.93-1.65-.96Z"/>
      </g>
      <g>
        <path class="cls-7" d="m407.39,205.95c-.08-2.27-.2-4.63-1.48-6.62-1.29-1.98-3.53-3.02-4.4-16.53,0-.02,0-.03,0-.05v-2.95c0-7.3-5.43-12.93-12.03-16.75-5.78-3.34-12.35-5.07-19.02-5.31l-23.52-.86-26.29-.85-21,.07c-1.83-.04-3.65-.03-5.48.05l-35.7,1.51c-6.34.27-12.61,1.64-18.38,4.28-8.43,3.86-13.67,9.28-13.67,17.86v13.65c0,.38-.3,1.06-.4,1.29-.02.05-.04.1-.05.16-1.73,9.31-4.46,8.72-5.2,10.7-.72,1.94.13,4.21,2,5.46.1.07.22.12.34.15,3.76.95,6.04-2,8.83-4.16,3.25-2.51,4.56-3.46,7.9-5.16,3.35-1.7,8.31-1.65,10.51,1.09,1.49,1.85,1.04,1.99,1.17,4.23.12,2.07.87,2.81,2.88,3.61,2.83,1.13,7.56,1.21,10.48.26,4.44-1.44,5.55-1.49,8.38-5.3,1.3-1.76,2.45-3.76,4.59-4.75,4.31-1.99,9.35,1.36,12.08,4.83,2.73,3.47,5.18,3.56,9.99,4.35,3.45.57,6.91-.93,9.74-2.71,2.83-1.78,5.45-3.93,8.75-4.98,3.3-1.05,7.62-.6,9.44,1.97.89,1.26,1.04,2.8,1.75,4.14,1.16,2.19,3.91,3.69,6.72,3.66,6.69-.06,10.15-7.3,16.46-9.2,4.25-1.28,12.85-1.84,12.89,2.02.05,4.89-2.71,6.78,1.65,7.77,6.43,1.46,7.46-3.95,12.89-7.14,1.71-1,2.8-2.15,4.77-2.67,7.86-2.08,9.37,7.49,17.57,8.02,1.14.07,2.37-.02,3.28-.61,1.53-.99,1.62-2.89,1.56-4.53Z"/>
        <path d="m408.6,205.95c-.09-2.64-.31-5.36-1.89-7.58-.44-.62-.92-1.19-1.3-1.85-1.79-3.08-2.12-7.09-2.45-10.56-.41-4.39.12-8.75-1.77-12.88-2.39-5.23-7.32-9.08-12.28-11.72-5.7-3.03-12.05-4.57-18.48-4.83-2.08-.08-4.15-.15-6.23-.23-5.76-.21-11.51-.43-17.27-.63-9.51-.33-19.05-.87-28.57-.84-6.16.02-12.32.08-18.48.06-5.13-.02-10.25.24-15.38.46-7.11.3-14.21.6-21.32.9-1.57.07-3.13.13-4.7.2-6.56.3-13.03,1.71-19.01,4.45-4.59,2.1-9.08,5.06-11.75,9.46-1.99,3.27-2.52,6.89-2.52,10.64v10.4c0,.97.06,1.8-.23,2.71-.77,2.37-1,4.88-2.25,7.09-.55.98-1.29,1.67-2.07,2.46-1.12,1.14-1.53,2.66-1.27,4.25.46,2.86,2.8,4.92,5.71,4.64s4.8-2.27,6.84-3.97,4.37-3.41,6.78-4.74,4.87-2.29,7.63-1.76c1.12.22,2.18.67,2.96,1.52s.97,1.48.98,2.59c.02,2.4.58,4.32,2.89,5.4,4.92,2.32,10.68,1.39,15.55-.52,1.94-.76,3.42-1.94,4.72-3.56,1.74-2.16,3.15-5.22,6.15-5.78s5.95,1.35,7.99,3.33c1.8,1.75,3.06,3.78,5.45,4.83,2.25.99,4.9,1.33,7.32,1.59,3.31.37,6.59-.94,9.38-2.61s5.43-3.94,8.59-5.05c2.35-.82,5.45-1.04,7.6.46,1.23.86,1.54,2.21,2.02,3.54s1.2,2.56,2.33,3.52c2.12,1.79,4.94,2.46,7.65,2.02,5-.81,8.16-5.16,12.23-7.71,2.02-1.27,4.28-1.86,6.63-2.13,2.03-.24,4.4-.41,6.35.32,3.52,1.32-1.07,6.54,1.22,8.96,1.42,1.51,4.31,1.74,6.22,1.43,2.15-.34,3.82-1.7,5.32-3.2.83-.83,1.64-1.69,2.52-2.48,1.15-1.03,2.47-1.77,3.74-2.64,2.02-1.39,4.26-2.47,6.74-1.63,1.75.59,3.12,1.97,4.45,3.2,1.5,1.39,3.05,2.8,4.9,3.69,2.06.99,4.65,1.54,6.9.91,2.86-.81,3.53-3.48,3.46-6.14-.04-1.56-2.46-1.56-2.42,0,.03,1.17.11,2.72-.96,3.48s-2.94.52-4.18.21c-1.99-.5-3.62-1.72-5.13-3.07-2.94-2.65-5.77-5.51-10.08-4.9-2.7.38-4.97,2.1-7.17,3.61-2,1.37-3.53,3.2-5.3,4.82-1.67,1.52-3.5,2.12-5.74,1.61-.51-.12-1.42-.28-1.58-.76-.16-.51.27-1.59.38-2.12.4-1.86.98-4.36-.41-5.95-1.18-1.35-3.12-1.72-4.81-1.88-4.34-.42-9.18.45-12.82,2.91s-7.17,7.15-12.08,7.17c-1.41,0-2.83-.41-3.99-1.22-1.42-.98-1.88-2.3-2.43-3.85-.92-2.59-2.68-4.3-5.39-4.93-6.17-1.44-10.89,2.61-15.8,5.59-2.87,1.74-5.85,2.78-9.23,2.24-2.24-.36-4.73-.57-6.65-1.9-1-.69-1.7-1.66-2.48-2.57-.91-1.05-1.94-1.98-3.06-2.79-2.27-1.64-5.12-2.78-7.95-2.32s-4.79,2.63-6.45,4.94c-1.21,1.69-2.47,3.42-4.41,4.31-2.12.97-4.63,1.73-6.95,1.89-2.46.17-5.46.07-7.65-1.24-1.89-1.13-.72-3.64-1.49-5.38-.92-2.07-2.89-3.51-5.06-4.03-5.3-1.27-10.23,1.83-14.29,4.89-1.04.78-2.07,1.57-3.06,2.4-1.08.91-2.13,1.92-3.41,2.55-1.17.58-2.77.86-3.77-.17s-1.23-2.53-.88-3.48c.14-.39.16-.31.51-.67.33-.33.68-.63,1-.98,1.14-1.24,1.89-2.73,2.47-4.31.47-1.28.8-2.6,1.08-3.93.19-.9.62-1.79.67-2.71.06-1,0-2.01,0-3.01v-9.82c0-3.83.81-7.44,3.23-10.52,3.37-4.29,8.71-6.91,13.76-8.64,4.64-1.59,9.46-2.37,14.35-2.58,5.58-.24,11.15-.47,16.73-.71,5.87-.25,11.74-.5,17.6-.75,5.23-.22,10.5-.1,15.73-.12,4.37-.01,8.75-.13,13.12.01,6.53.21,13.06.42,19.59.63,9.53.31,19.05.66,28.58,1.02,5.88.23,11.73,1.58,16.97,4.3,4.85,2.51,9.8,6.2,11.96,11.4.82,1.99,1.03,4.02,1.03,6.15,0,2.27.16,4.5.41,6.75.39,3.39.84,7.07,2.55,10.09.36.65.82,1.22,1.26,1.81,1.41,1.92,1.58,4.18,1.66,6.49.06,1.55,2.48,1.56,2.42,0Z"/>
      </g>
      <text class="cls-12" transform="translate(277.25 300.59) scale(1.15 1)"><tspan x="0" y="0">U</tspan><tspan class="cls-13" x="8.29" y="0">R</tspan><tspan x="15.63" y="0">TE PES</tspan><tspan class="cls-13" x="56.72" y="0">T</tspan><tspan x="63.6" y="0">O</tspan></text>
      <g>
        <polyline class="cls-2" points="253.04 261.71 239.69 262.13 251.2 282.63 254.5 282.5 268.6 261.2 254.92 261.48 254.82 266.21 259.14 266.08 253.57 274.13 248.83 266.67 252.93 266.53 253.04 261.71"/>
        <path class="cls-2" d="m272.98,261.17c1.07-.13,1.87-.29,1.98-.32.97-.21,2.15-1.05,2.4-2.17.32-1.42-.93-2.93-2.34-3.26-1.14-.26-2.45.17-3.7.9-1.1.65-2.35,1.78-2.42,1.79-.04,0,.9-.97.96-1.11.46-1.07.53-2.92-.68-3.8-1.18-.86-2.96-.35-3.07-.32-2.21.67-3.04,3.11-2.81,4.7.06.42.19,1.29.94,1.85.11.08.24.15.39.21-.08-.03-.17-.06-.26-.09-.51-.19-.43-.52-.83-.59-.67-.11-1.76.14-2.37.29-1.69.43-2.5,1.1-2.71,1.63-.35.9.27,2.03,1.15,2.53.86.49,2.01.38,2.81.3.23-.02.42-.09.58-.08.09,0,.18,0,.28,0-.05,0-.1.02-.15.02-.68.09-1.09.53-1.25.77-.31.45-.62.73-.49,2.15.03.29.37,1,1.41,1.36,1.29.44,2.61-.38,3.39-.86.41-.25,1.57-.98,2.03-2.26.36-1,.13-1.89.21-1.9.1,0-.04,1.53.94,2.94.24.35.93,1.31,2.29,1.76.11.04,2.48.8,4.01-.45.82-.67.95-1.56.99-1.85.2-1.51-.86-3-2.19-3.57-1.04-.45-2.25-.34-2.24-.45,0-.06.33-.08.78-.14Zm-5.11.11c-.47,0-.96-.29-.96-.54s.46-.5.94-.5.99.25.99.5-.49.54-.96.54Z"/>
        <path class="cls-2" d="m303.38,275.72c.11-3.78-2.69-6.94-4.73-8.4-1.35-.97-4.45-2.99-8.38-2.71l.28-2.53-6.47.97-.11,1-.53,4.7-1.22,8.89-.39,4.99,5.85.22-.17-1.63c3.31,2.13,11.04,1.73,13.55-.62.39-.37,2.24-2.2,2.32-4.88Zm-5.36-1.33c-.37,2.43-5.21,4.52-9.28,2.86l.98-8.37c4.74-.49,8.67,3.08,8.3,5.51Z"/>
        <path class="cls-2" d="m268.64,282.63c4.74.09,8.4-.35,17.5.11l-1.2-6.05-5.12.58-4.24.51,4.83-9.45,2.75-4.03-6.77-1.83-7.04,15.33s-1.04,4.82-.71,4.83Z"/>
        <polygon class="cls-2" points="258.24 282.63 268.64 282.63 271.37 264.93 265.11 264.95 258.24 282.63"/>
      </g>
      <polygon class="cls-2" points="334.93 282.5 321.39 282.5 321.3 275.81 325.3 275.6 324.1 270.12 320.55 273.97 317.8 270.17 315.72 275.73 319.66 275.75 319.66 282.5 304.43 282.5 311.13 258.75 316.2 258.75 321.25 267.11 326.51 259.29 332.06 258.75 334.93 282.5"/>
      <g>
        <path d="m382.15,263.62l1.08-3.97c.3.89,1.17,1.58,2.15,1.94s2.07.46,3.14.47c-2.2,2.58-3.63,5.65-4.12,8.83-1.15-.62-2.55-.88-3.89-.72.37-1.01,1.56-2.05,1.11-3.04-.6-1.35-.99-1.27-1.66-1.3-1.01-.05-1.78.41-2.39,1.1s-.45,1.67-.21,2.52c.09.33,1.47.82,1.85.88,2,.35,4.67-.95,10.88,3.7,3.41,2.56,1.73,6.78-.08,8.1-.43.31-1.2.69-2.8.69s-2.83-.2-3.6-.35c-.54-.1-1.39-.86-2-1.39-.4-.35-1.48-1.17-1.66-2.19l.02.04c.28.83.61,1.58,1.05,2.35.27.48.61.98,1.16,1.22-1.77-.04-5.37-.04-7.37-.04-.4-.69-5.6-9.37-6.26-10.31v.02c1.29.15,2.45.14,3.76.15,1.31.01,2.76-.16,4.07-.29-.58.97-.23,2.29.78,2.95,1.03.67,3.65,1.58,3.65,1.58.8.35,1.6.35,2.4.35.41,0,1.85-.36,2-.69s-1.6-3.12-5.6-3.12c-2,0-3.45-1.1-5.2-1.74-1.09-.39-1.67-1.31-2.43-2.1-.5-.52-.95-1.11-1.06-1.78-.09-.54.06-1.08.23-1.61.3-.95.69-1.89,1.3-2.72s1.43-1.57,2.45-2c.81-.34,1.71-.47,2.61-.52,1.75-.08,3.66.24,5.14,1.06"/>
        <path class="cls-6" d="m382.29,263.65l1.08-3.97h-.27c.89,2.12,3.38,2.48,5.42,2.51l-.1-.24c-1.57,1.88-2.81,4.01-3.56,6.35-.18.58-.24,1.25-.47,1.81-.28.7-.4.38-1.05.17-.52-.17-1.07-.26-1.62-.3-.1,0-.93.07-.97-.03-.04-.09.45-.76.49-.84.4-.65.76-1.27.52-2.04-.18-.58-.61-1.2-1.22-1.36-1.39-.36-3.27.59-3.51,2.07-.51,3.17,3.21,2.6,5.2,2.79s3.77.97,5.43,1.96c2.35,1.4,4.76,3.14,4.18,6.21-.47,2.47-2.13,3.89-4.62,3.92-1.32.02-3.09.05-4.24-.67-1.08-.68-2.55-1.9-2.88-3.15l-.26.11c.66,1.3.91,2.89,2.28,3.67l.07-.26c-2.28-.04-4.56.01-6.84-.03-.59-.01-.58-.23-.89-.74-.37-.62-.74-1.24-1.12-1.87-1.53-2.55-2.98-5.18-4.66-7.63-.05-.08-.2-.1-.24,0v.02c-.05.1,0,.2.11.21,2.36.24,4.68.13,7.04-.06.7-.06.43-.13.44.3,0,.32-.08.59-.02.92.1.56.4,1.06.83,1.43.99.86,2.53,1.27,3.74,1.72,1.3.47,2.71.61,4.02.11.6-.22.89-.42.61-1.01-.41-.87-1.37-1.56-2.19-1.98-1.64-.85-3.34-.54-5.05-1.04-.99-.29-1.9-.8-2.84-1.2-1.17-.51-1.88-1.04-2.72-1.98-.48-.53-1.06-1.05-1.27-1.75-.27-.85.09-1.78.39-2.57.53-1.39,1.35-2.69,2.63-3.5,2.38-1.52,6-1.13,8.41.11.16.08.3-.16.14-.24-2.55-1.32-6.37-1.7-8.85-.02-1.98,1.35-4.13,5.02-2.47,7.25.77,1.04,1.77,2.16,2.96,2.68,1.42.63,2.91,1.47,4.46,1.69,1.7.24,3.23.18,4.71,1.2.43.29.82.64,1.14,1.05.39.5.54.74-.14,1.05-1.37.63-2.95.23-4.29-.27-1.69-.63-4.95-1.65-3.73-4.1.04-.09,0-.22-.12-.21-1.92.2-3.82.32-5.75.27-.45-.01-2.13-.3-2.08.24.02.19.36.56.46.73,1.12,1.79,2.2,3.6,3.29,5.41.53.87,1.05,1.75,1.57,2.62.21.35.47,1.12.81,1.37.23.17.66.07.94.07.76,0,1.51,0,2.27,0,1.43,0,2.86,0,4.29.03.14,0,.19-.19.07-.26-1.32-.75-1.55-2.33-2.18-3.57-.07-.14-.3-.04-.26.11.36,1.34,1.67,2.34,2.75,3.13,1.21.89,2.98.89,4.43.9,1.22,0,2.48-.13,3.41-.98.89-.8,1.47-1.98,1.69-3.15.66-3.46-2.25-5.4-4.91-6.87-2.08-1.15-4.2-1.7-6.56-1.7-1.45,0-3.46-.19-3.35-2.13.08-1.4,2.11-2.79,3.46-2.02,1.75,1,.14,2.84-.36,4-.04.09,0,.22.12.21,1.35-.12,2.61.09,3.82.7.07.04.19.01.21-.08.54-3.26,1.96-6.23,4.08-8.77.08-.09.03-.24-.1-.24-1.89-.04-4.31-.31-5.15-2.31-.05-.12-.23-.15-.27,0l-1.08,3.97c-.05.17.22.25.27.07h0Z"/>
      </g>
      <path class="cls-2" d="m344.94,264.12c.1-.22.18-.5.16-.82-.06-.9-1.2-1.82-1.18-1.56.06.68.05,1.24-.34,1.36-.16.05-.39-.1-.51-.24-.2-.26-.11-.58,0-.93.38-1.21.43-1.28.51-1.56.06-.23.77-1.36.39-2.29-.13-.32-.62,3.9-.79-1.17-.05-1.4-1.24-1.02-1.85-1.36-.54-.3-.79-.84-.06-1.75.51-.63.79-.68.51-.63-.55.09-1.4.54-1.52,1.27-.11.69-.23,1.65,1.01,3.41.4.57.85.92.79,1.51-.04.41-.33.92-.67.93-.21,0-.41-.18-.51-.34-.21-.38.06-.81,0-.83-.05-.02-.24.24-.39.58-.08.18-.26.58-.28,1.02-.04,1.03.08,1.8.56,1.9,1.35.29-.9,2.34-1.01,1.07h0c-.05-.15-.1-.9-.14-.97-.16-.35-.34-.6-.39-.58-.06.02.21.45,0,.83,0,.01-.01.15-.02.31-.01.23-.23.41-.49.41h-.4c-.14-.19-.24-.44-.27-.67-.06-.59.38-.94.79-1.51,1.24-1.77.66-3.32.51-4-.06-.24-.25-.88-.73-.63-.28.15.12.15.17.29.34,1.07.04,1.71-.28,2.19-.22.34-.17.29-1.07,1.46-.44.57-.66.85-.79,1.17-.38.93-.17,1.82-.11,2.05.06.22.1.31.3.91l-.66,1.13c0-.09-.51.17-.64-.29-.16-.6.04-1.96.06-2.1.02-.26-1.07,1.98-1.12,2.88-.02.32.61,1,.71,1.22l-8.53,14.72,13.51-.02.22-4.33h-4.79s2.19-3.51,2.19-3.51h6.29l2.11,3.51h-4.75s.37,4.34.37,4.34h12.91c-1.95-4.41-1.94-4.38-6.32-13.15-.44-.89-.11-2.92-1.01-4.68-.63-1.23-2.25-2.92-1.63-1.95.22.93.87,2.2.95,2.88.13,1.06-.43,1.3-.67,1.27l-.03-.04c-.4-.45-.8-.34-1.05-1.09-.12-.35-.15-.71-.1-1.07l.07-.54Zm-5.96,7.18l1.89-3.51,2.27,3.51h-4.16Z"/>
      <path class="cls-2" d="m373.74,272.42c-.75-4.39-4.55-7.56-7.11-8.9-1.7-.88-5.56-2.68-9.79-1.67l-.27-2.98-6.85,2.25.11,1.18.51,5.54.72,10.51.34,3.91,6.71.07-.44-.75c4.11,1.88,12.47.07,14.66-3.09.34-.49,1.94-2.94,1.41-6.06Zm-14.33,4.12l-.81-8.75c2.66-.31,4.49.02,5.61.66,1.21.69,1.62,1.22,2.3,2.67,2.06,4.42-2.14,5.58-7.1,5.42Z"/>
      <ellipse class="cls-2" cx="304.63" cy="267.36" rx="4.4" ry="3.82"/>
      <g>
        <path d="m368.19,257.82c-1.3.12-2.59.43-3.88.63-1.29.19-2.63.27-3.88-.06,1.26.7,2.86,1,3.86,1.96,1.19,1.14,1.92,1.78,2.67,3.01.22.37.14.84.33,1.22,1.39-.4,2.94-.37,4.3.1.14-.69,0-1.4-.27-2.05s-.67-1.26-1.07-1.87c-.7-1.05-1.2-2-2.08-2.94"/>
        <path class="cls-6" d="m368.19,257.68c-2.56.26-5.14,1.21-7.72.58-.15-.04-.25.18-.11.26,1.41.76,2.94,1.08,4.12,2.21.52.5,1.05.99,1.52,1.54.27.31.54.65.74,1.01.25.43.23.89.41,1.34.03.07.09.12.17.1,1.4-.38,2.85-.35,4.23.1.07.02.16-.03.17-.1.22-1.33-.37-2.52-1.08-3.61-.74-1.15-1.44-2.36-2.37-3.38-.12-.13-.32.06-.2.2.83.91,1.43,1.97,2.11,2.99.73,1.11,1.5,2.34,1.27,3.73l.17-.1c-1.43-.46-2.93-.49-4.38-.1l.17.1c-.16-.41-.14-.86-.35-1.25-.15-.3-.38-.59-.59-.86-.5-.65-1.09-1.21-1.68-1.77s-1.2-1.03-1.98-1.37-1.59-.61-2.34-1.01l-.11.26c2.61.64,5.2-.3,7.79-.57.18-.02.18-.3,0-.28h0Z"/>
      </g>
      <g>
        <path class="cls-9" d="m402.15,188.69c-6.98.78-11.18.7-18.2,1.13-22.33,1.35-40.74-1.5-61.54-1.5-31.53,0-64.27,2.58-95.78,1.5v-3.38c31.51,1.08,64.1-1.44,95.63-1.44,20.8,0,39.21,2.86,61.54,1.5,7.02-.43,10.93-.4,17.92-1.19l.43,3.38Z"/>
        <path d="m402.15,188.37c-5.13.57-10.26.72-15.41.98-5.84.29-11.67.56-17.52.51-10.83-.1-21.63-.96-32.44-1.47-23.33-1.11-46.73.36-70.05,1.01-13.36.37-26.73.56-40.09.11l.32.32v-3.38l-.32.32c23.82.8,47.64-.4,71.45-1.06,11.51-.32,23.05-.61,34.56-.18,10.85.41,21.68,1.32,32.54,1.58,6.45.16,12.9.05,19.34-.33,5.74-.33,11.48-.51,17.19-1.15l-.32-.32.43,3.38c.05.4.69.41.64,0l-.43-3.38c-.02-.16-.13-.34-.32-.32-5.04.56-10.08.77-15.14,1.03-5.76.3-11.5.56-17.28.51-10.91-.09-21.78-.96-32.67-1.48-23.31-1.11-46.69.34-70,.97-13.33.36-26.67.54-40,.09-.17,0-.32.15-.32.32v3.38c0,.18.15.31.32.32,23.74.8,47.48-.42,71.21-1.1,11.64-.33,23.3-.64,34.94-.2,10.78.41,21.53,1.31,32.32,1.57,6.45.16,12.89.06,19.33-.31,5.91-.34,11.83-.45,17.72-1.1.4-.04.41-.68,0-.64Z"/>
      </g>
      <path class="cls-6" d="m398.97,318.63c0,6.15.12,13.21-5.34,17.24-5.18,3.82-11.62,5.81-17.6,7.98-2.04.74-1.16,4.03.9,3.28,6.58-2.39,13.72-4.59,19.28-8.99,5.97-4.73,6.15-12.51,6.15-19.52,0-2.19-3.4-2.19-3.4,0h0Z"/>
    </g>
  </g>
</svg>