<?xml version="1.0" encoding="UTF-8"?>
<svg id="Layer_2" data-name="Layer 2" xmlns="http://www.w3.org/2000/svg" viewBox="0 0 174 192.05">
  <defs>
    <style>
      .cls-1 {
        fill: #00a84e;
      }

      .cls-2 {
        fill: #fff;
      }
    </style>
  </defs>
  <g id="Layer_1-2" data-name="Layer 1">
    <path class="cls-1" d="m14.2,37.62L72.8,3.82c8.8-5.1,19.6-5.1,28.4,0l58.6,33.8c8.8,5.1,14.2,14.4,14.2,24.6v67.6c0,10.1-5.4,19.5-14.2,24.6l-58.6,33.8c-8.8,5.1-19.6,5.1-28.4,0l-58.6-33.8c-8.8-5-14.2-14.4-14.2-24.6V62.23c0-10.1,5.4-19.5,14.2-24.6"/>
    <path class="cls-2" d="m33.9,106.12c.1-.4.4-.8,1-.8h.9c.4,0,.8.2.9.5l12,25.6h.2l12-25.6c.2-.3.4-.5.9-.5h.9c.6,0,.9.4,1,.8l6.4,36.5c.2.8-.3,1.2-1,1.2h-5.1c-.5,0-.9-.4-1-.8l-3.2-20.6h-.2l-9.5,21.3c-.1.3-.4.6-.9.6h-1c-.5,0-.8-.3-.9-.6l-9.6-21.3h-.2l-3.2,20.6c-.1.4-.5.8-1,.8h-4.9c-.7,0-1.1-.5-1-1.2,0,0,6.5-36.5,6.5-36.5Z"/>
    <g>
      <path class="cls-2" d="m25.8,55.62c-.3-.7.1-1.4.9-1.4h5.5c.5,0,.8.3.9.6l10.4,23.4h.5l10.4-23.4c.1-.3.4-.6.9-.6h5.5c.8,0,1.2.7.9,1.4l-16.7,36.6c-.2.3-.4.6-.9.6h-.5c-.5,0-.8-.3-.9-.6l-16.9-36.6Zm42.1-.3c0-.5.5-1,1-1h5.1c.5,0,1,.5,1,1v36c0,.5-.5,1-1,1h-5.1c-.5,0-1-.5-1-1v-36Zm17,0c0-.5.4-1,1-1h5c.5,0,1,.5,1,1v30.5h13.9c.6,0,1,.5,1,1v4.5c0,.5-.4,1-1,1h-19.9c-.6,0-1-.5-1-1v-36Zm28.5,0c0-.5.4-1,1-1h12.9c10.5,0,19.1,8.5,19.1,19s-8.6,19.1-19.1,19.1h-12.9c-.5,0-1-.5-1-1,0,0,0-36.1,0-36.1Zm13.2,30.3c7.1,0,12.2-5.3,12.2-12.4s-5.2-12.4-12.2-12.4h-6.2v24.8s6.2,0,6.2,0Z"/>
      <path class="cls-2" d="m73.5,142.42l16.9-36.6c.2-.3.4-.6.9-.6h.5c.5,0,.8.3.9.6l16.7,36.6c.3.7-.1,1.4-.9,1.4h-4.7c-.8,0-1.2-.3-1.6-1.1l-2.7-5.9h-16.1l-2.7,5.9c-.2.5-.7,1.1-1.6,1.1h-4.7c-.8.1-1.2-.6-.9-1.4Zm23.5-11.5l-5.4-12h-.2l-5.3,12h10.9Z"/>
    </g>
    <path class="cls-2" d="m113.4,106.93c0-.5.4-1,1-1h12.9c10.5,0,19.1,8.5,19.1,19s-8.6,19.1-19.1,19.1h-12.9c-.5,0-1-.5-1-1,0,0,0-36.1,0-36.1Zm13.2,30.3c7.1,0,12.2-5.3,12.2-12.4s-5.2-12.4-12.2-12.4h-6.2v24.8s6.2,0,6.2,0Z"/>
  </g>
</svg>