<?xml version="1.0" encoding="UTF-8"?>
<svg id="Layer_2" data-name="Layer 2" xmlns="http://www.w3.org/2000/svg" viewBox="0 0 510.45 491.19">
  <defs>
    <style>
      .cls-1 {
        stroke-width: 10.42px;
      }

      .cls-1, .cls-2 {
        fill: #fff;
      }

      .cls-1, .cls-3, .cls-4 {
        stroke-miterlimit: 10;
      }

      .cls-1, .cls-4 {
        stroke: #000;
      }

      .cls-5 {
        fill: #ffe5cc;
      }

      .cls-6 {
        fill: #ff921e;
      }

      .cls-7 {
        fill: #8b6239;
      }

      .cls-8 {
        fill: #e0cab4;
      }

      .cls-9 {
        fill: #754c24;
      }

      .cls-10 {
        letter-spacing: -.2em;
      }

      .cls-11 {
        font-family: PermanentMarker-Regular, 'Permanent Marker';
        font-size: 10.38px;
      }

      .cls-3 {
        stroke: #fff;
        stroke-width: .32px;
      }

      .cls-4 {
        stroke-width: 10.48px;
      }

      .cls-12 {
        letter-spacing: 0em;
      }

      .cls-13 {
        letter-spacing: 0em;
      }
    </style>
  </defs>
  <g id="Layer_1-2" data-name="Layer 1">
    <g>
      <g>
        <ellipse class="cls-4" cx="267.37" cy="245.6" rx="237.83" ry="240.35"/>
        <ellipse class="cls-1" cx="243.04" cy="245.6" rx="237.83" ry="240.35"/>
      </g>
      <g>
        <path class="cls-9" d="m233.09,390.36c1.91-7.31,5.31-14.24,9.96-20.28-.66-7.29,3.58-14.05,7.63-20.22,19.3-29.39,38.18-59.05,56.63-88.95,4.62-7.48,9.58-15.34,17.49-19.45l-10.24-15.62c-40.12,52.78-77.02,107.88-110.44,164.91l28.97-.39Z"/>
        <path d="m234.11,390.64c1.42-5.34,3.59-10.44,6.49-15.16.65-1.06,1.34-2.1,2.06-3.11.38-.54,1.04-1.17,1.3-1.77.25-.56.09-1.21.08-1.81-.04-2.68.61-5.29,1.58-7.77,2.08-5.31,5.57-10.02,8.67-14.75,3.33-5.09,6.65-10.18,9.95-15.28,13.22-20.4,26.23-40.93,39.05-61.59,3.25-5.23,6.33-10.61,9.91-15.63,3.26-4.57,7.12-8.75,12.13-11.4.48-.26.68-.98.38-1.44-3.41-5.21-6.83-10.41-10.24-15.62-.47-.71-1.34-.63-1.82,0-15.69,20.65-30.9,41.66-45.61,63.02s-28.71,42.75-42.31,64.61c-7.67,12.33-15.17,24.76-22.51,37.28-.4.68.11,1.59.91,1.58,8.45-.11,16.9-.23,25.34-.34,1.21-.02,2.42-.03,3.63-.05,1.35-.02,1.36-2.12,0-2.1-8.45.11-16.9.23-25.34.34-1.21.02-2.42.03-3.63.05l.91,1.58c13.09-22.33,26.7-44.36,40.82-66.05,14.05-21.59,28.61-42.85,43.65-63.76,8.5-11.81,17.15-23.51,25.96-35.1h-1.82c3.41,5.21,6.83,10.41,10.24,15.62l.38-1.44c-9.17,4.86-14.42,14.25-19.68,22.76-6.52,10.55-13.09,21.06-19.72,31.54s-13.3,20.93-20.04,31.35c-3.39,5.24-6.79,10.48-10.2,15.71-3.21,4.91-6.72,9.73-9.4,14.95-1.35,2.61-2.48,5.39-2.98,8.3-.25,1.43-.11,2.87-.29,4.28-.09.7-.7,1.3-1.12,1.88s-.83,1.2-1.23,1.81c-3.4,5.2-5.93,10.95-7.52,16.95-.35,1.31,1.68,1.87,2.03.56Z"/>
      </g>
      <g>
        <path class="cls-9" d="m233.18,375.69c1.45.08,2.66-1.2,3.05-2.56s.2-2.8.17-4.21c-.1-5.18,2.23-10.36,6.21-13.81"/>
        <path d="m233.18,376.74c1.87-.01,3.36-1.34,3.98-3.06.78-2.17.15-4.61.39-6.86.46-4.24,2.63-8.16,5.81-10.96,1.02-.9-.48-2.38-1.49-1.49-2.87,2.53-4.97,5.91-5.93,9.62-.48,1.87-.64,3.78-.57,5.7.06,1.64.23,4.93-2.2,4.94-1.35,0-1.36,2.11,0,2.1h0Z"/>
      </g>
      <g>
        <path class="cls-9" d="m244.15,332.87c-5.66,5.14-10.07,11.57-12.77,18.62"/>
        <path d="m243.41,332.13c-5.76,5.27-10.22,11.81-13.05,19.09-.49,1.26,1.54,1.81,2.03.56,2.69-6.94,7.02-13.14,12.5-18.16,1-.92-.49-2.4-1.49-1.49h0Z"/>
      </g>
      <g>
        <path class="cls-9" d="m226.96,357.88c-7.3,7.89-5.7,20.56-11.69,29.43"/>
        <path d="m226.21,357.14c-7.52,8.29-5.85,20.58-11.86,29.64-.75,1.13,1.07,2.19,1.82,1.06,2.95-4.44,4.12-9.68,5.33-14.79s2.57-10.42,6.19-14.42c.91-1-.58-2.49-1.49-1.49h0Z"/>
      </g>
      <g>
        <path class="cls-9" d="m230.74,362c4.1-4.87,8.2-9.74,12.29-14.61,1.16-1.38,2.32-2.76,3.18-4.33.85-1.56,1.39-3.28,1.57-5.04"/>
        <path d="m231.49,362.75c3.53-4.2,7.07-8.4,10.6-12.6,1.55-1.84,3.21-3.64,4.51-5.67s1.97-4.14,2.25-6.45c.16-1.34-1.95-1.33-2.1,0-.57,4.79-4.1,8.21-7.06,11.73-3.23,3.83-6.45,7.67-9.68,11.5-.87,1.03.61,2.53,1.49,1.49h0Z"/>
      </g>
      <g>
        <path class="cls-9" d="m263.96,305.64c-4.02,3.65-7.75,7.6-11.16,11.8"/>
        <path d="m263.22,304.89c-4.01,3.65-7.74,7.59-11.16,11.8-.36.44-.43,1.06,0,1.49.37.37,1.13.44,1.49,0,3.42-4.2,7.15-8.15,11.16-11.8,1-.91-.49-2.4-1.49-1.49h0Z"/>
      </g>
      <g>
        <path class="cls-9" d="m257.59,328.82c2.42-3.44,5.21-6.65,8.3-9.54"/>
        <path d="m258.49,329.35c2.38-3.38,5.12-6.5,8.13-9.33.99-.93-.5-2.41-1.49-1.49-3.15,2.95-5.98,6.23-8.46,9.75-.33.46-.08,1.17.38,1.44.53.31,1.11.09,1.44-.38h0Z"/>
      </g>
      <g>
        <path class="cls-9" d="m281.12,270.66c-.72-4.74-.14-9.66,1.66-14.11-2.66.46-5.43.36-8.05-.28.75,1.65.36,3.56-.05,5.32-2.66,11.47-4.57,21.16-8.91,32.14"/>
        <path d="m282.14,270.38c-.66-4.6-.04-9.24,1.66-13.55.33-.83-.6-1.41-1.29-1.29-2.5.4-5.03.3-7.49-.28-.7-.16-1.61.5-1.29,1.29.63,1.58.31,3.15-.05,4.76-.35,1.52-.7,3.04-1.04,4.56-.71,3.12-1.42,6.25-2.19,9.36-1.53,6.19-3.35,12.29-5.68,18.22-.5,1.26,1.54,1.81,2.03.56,2.44-6.21,4.31-12.6,5.89-19.07.78-3.2,1.5-6.42,2.24-9.63.67-2.92,2.01-6.37.84-9.32l-1.29,1.29c2.85.67,5.72.75,8.61.28l-1.29-1.29c-1.85,4.69-2.37,9.69-1.66,14.67.19,1.33,2.22.77,2.03-.56h0Z"/>
      </g>
      <g>
        <path class="cls-9" d="m280.97,281.21c-2.46,1.3-4.62,3.13-6.29,5.32"/>
        <path d="m280.44,280.3c-2.62,1.4-4.87,3.35-6.67,5.7-.34.44-.08,1.2.38,1.44.56.29,1.08.09,1.44-.38-.09.11.03-.04.06-.08.05-.07.11-.14.16-.2.1-.12.2-.24.3-.36.22-.25.44-.5.67-.74.47-.49.97-.96,1.49-1.4.12-.1.24-.2.36-.3.07-.05.14-.11.21-.16.15-.12-.19.14.08-.06s.54-.39.81-.58c.57-.38,1.16-.74,1.76-1.06.49-.26.68-.97.38-1.44-.32-.49-.92-.66-1.44-.38h0Z"/>
      </g>
      <g>
        <path class="cls-9" d="m275.23,291.93c.89,2.06.42,4.5-.73,6.44s-2.88,3.48-4.64,4.93"/>
        <path d="m274.22,292.21c1.76,4.26-2.14,7.9-5.1,10.35-.44.36-.38,1.11,0,1.49.43.43,1.05.36,1.49,0,1.87-1.55,3.76-3.23,4.94-5.39s1.63-4.73.7-7.01c-.22-.52-.7-.9-1.29-.73-.5.14-.95.77-.73,1.29h0Z"/>
      </g>
      <g>
        <path class="cls-9" d="m272.52,307.98c4.92-3.82,6.74-10.18,8.3-16.11,1.56-5.93,3.41-12.29,8.35-16.08"/>
        <path d="m273.27,308.72c4.88-3.89,6.83-10.04,8.38-15.85s3.21-12.36,8.27-16.34c1.06-.84-.43-2.32-1.49-1.49-10.25,8.06-6.57,24.16-16.65,32.19-1.06.84.44,2.32,1.49,1.49h0Z"/>
      </g>
      <g>
        <path class="cls-9" d="m290.75,267.28l-3.09,1.55"/>
        <path d="m290.21,266.37c-1.03.52-2.06,1.03-3.09,1.55-.49.25-.67.98-.38,1.44.33.5.91.64,1.44.38,1.03-.52,2.06-1.03,3.09-1.55.49-.25.67-.98.38-1.44-.33-.5-.91-.64-1.44-.38h0Z"/>
      </g>
      <g>
        <path class="cls-9" d="m301.02,253.88c-2.06,1.05-4.05,2.21-5.97,3.47"/>
        <path d="m300.49,252.97c-2.05,1.05-4.05,2.21-5.97,3.47-.46.3-.7.94-.38,1.44.3.46.95.7,1.44.38,1.92-1.27,3.92-2.43,5.97-3.47.49-.25.67-.98.38-1.44-.32-.5-.91-.64-1.44-.38h0Z"/>
      </g>
      <g>
        <path class="cls-9" d="m296.12,269.96c2.83-2.89,5.48-5.95,7.92-9.15"/>
        <path d="m296.86,270.71c2.89-2.95,5.58-6.08,8.08-9.37.34-.45.07-1.18-.38-1.44-.54-.32-1.09-.08-1.44.38-2.39,3.14-4.99,6.12-7.75,8.94-.95.97.54,2.46,1.49,1.49h0Z"/>
      </g>
      <g>
        <path class="cls-9" d="m307.48,251.7l-4.59-1.3"/>
        <path d="m307.76,250.69c-1.53-.43-3.06-.87-4.59-1.3-.53-.15-1.17.18-1.29.73s.17,1.13.73,1.29c1.53.43,3.06.87,4.59,1.3.53.15,1.17-.18,1.29-.73s-.17-1.13-.73-1.29h0Z"/>
      </g>
      <g>
        <path class="cls-9" d="m320.01,238.08c-3.76.81-7.56,1.43-11.38,1.87"/>
        <path d="m319.73,237.07c-3.67.79-7.37,1.4-11.1,1.84-.56.07-1.05.44-1.05,1.05,0,.52.48,1.12,1.05,1.05,3.92-.45,7.81-1.08,11.66-1.91,1.32-.28.76-2.31-.56-2.03h0Z"/>
      </g>
      <g>
        <path class="cls-9" d="m273.53,276.15c.93-1.11,1.86-2.21,2.8-3.32"/>
        <path d="m274.28,276.9c.93-1.11,1.86-2.21,2.8-3.32.18-.22.31-.45.31-.74,0-.26-.11-.57-.31-.74-.39-.36-1.11-.45-1.49,0-.93,1.11-1.86,2.21-2.8,3.32-.18.22-.31.45-.31.74,0,.26.11.57.31.74.39.36,1.11.45,1.49,0h0Z"/>
      </g>
      <g>
        <path class="cls-9" d="m276.8,266.43c.05-1.77.22-3.54.51-5.29"/>
        <path d="m277.85,266.43c.02-.87.07-1.74.16-2.6.04-.42.09-.83.14-1.24,0-.04.04-.32.02-.13.01-.1.03-.21.04-.31.04-.24.07-.48.11-.72.09-.54-.14-1.16-.73-1.29-.51-.12-1.2.15-1.29.73-.3,1.84-.49,3.7-.54,5.57-.02.55.49,1.08,1.05,1.05s1.04-.46,1.05-1.05h0Z"/>
      </g>
      <g>
        <path class="cls-8" d="m296.7,239.25c8.31,1.61,16.62,3.21,24.94,4.82,2.18,4.84,1.73,10.71-1.17,15.18s-8.16,7.39-13.59,7.56c-1.47.05-3.43-.66-3.18-2.06.11-.61.62-1.05,1-1.54,1.89-2.47.33-5.9-.88-8.74-1.87-4.37-2.81-9.11-2.74-13.84-2.35,3.42-4.94,6.67-7.77,9.73-2.6-3.99-1.71-9.15-.73-13.77.68-3.19,1.38-6.45,3.11-9.23s3.38-6.39,6.73-6.42l22.82-6.76,12.26,14.08c1.05,6.59-2.64,13.12-8.2,17.03-1.16.82-2.45,1.55-3.87,1.72s-2.9-.35-3.62-1.56"/>
        <path d="m296.42,240.26c8.31,1.61,16.62,3.21,24.94,4.82l-.63-.48c3.13,7.19,0,15.52-6.8,19.22-1.58.86-3.3,1.45-5.07,1.75-.69.12-4.67.58-3.96-.95.35-.76,1.06-1.27,1.37-2.1.29-.76.4-1.6.36-2.41-.09-1.78-.75-3.46-1.44-5.08-1.95-4.63-3.1-9.34-3.06-14.4,0-1.1-1.39-1.35-1.96-.53-2.31,3.35-4.85,6.52-7.6,9.52l1.65.21c-1.65-2.65-1.76-5.75-1.38-8.77s1.05-6.21,1.98-9.16c.84-2.66,2.3-5.21,3.93-7.47.62-.86,1.38-1.75,2.38-2.18.55-.24,1.13-.22,1.71-.35,2.11-.47,4.21-1.25,6.28-1.86,3.4-1.01,6.8-2.02,10.2-3.02,2.07-.61,4.13-1.23,6.2-1.84l-1.02-.27c2.66,3.05,5.32,6.11,7.98,9.16,1.31,1.5,2.76,2.96,3.96,4.55.07.1.27.23.31.35.02.07-.11-.05-.09.03-.03-.13-.06.46-.06.58.04.63.04,1.26,0,1.89-.14,2.2-.84,4.35-1.89,6.28-1.2,2.2-2.83,4.12-4.75,5.72-1.68,1.39-5.45,4.09-7.23,1.45-.75-1.11-2.58-.06-1.82,1.06,3.23,4.77,9.28.41,12.12-2.48,3.38-3.44,5.7-8.08,5.71-12.97,0-1.2.01-2.43-.78-3.36-.61-.71-1.22-1.41-1.84-2.11l-6-6.89c-1.38-1.58-2.75-3.16-4.13-4.74-.24-.27-.68-.37-1.02-.27-5.47,1.62-10.93,3.24-16.4,4.86-2.09.62-4.22,1.45-6.37,1.89-.73.15-1.42.19-2.12.53-1.16.56-2.06,1.51-2.84,2.53-1.71,2.25-3.24,4.9-4.17,7.57-1.17,3.34-1.9,7.01-2.32,10.52s-.18,6.87,1.66,9.84c.34.55,1.18.73,1.65.21,2.87-3.13,5.52-6.45,7.93-9.94l-1.96-.53c-.03,3.3.38,6.6,1.26,9.79.83,3,2.56,5.79,3.13,8.84.32,1.7-.12,2.67-1.1,4-.67.9-.94,1.99-.29,3,1.31,2.03,4.4,1.69,6.4,1.34,5.33-.91,10.28-4.37,12.75-9.2,1.29-2.52,1.94-5.36,1.88-8.18-.03-1.41-.23-2.83-.6-4.19-.35-1.28-.61-2.75-2.03-3.07-8.09-1.79-16.31-3.15-24.45-4.72-1.32-.26-1.89,1.77-.56,2.03h0Z"/>
      </g>
      <g>
        <path class="cls-8" d="m352.64,209.23c.84.93.53,2.36.18,3.55-1.42,4.76-3.07,9.86-7.12,12.87-3.7,2.76-8.66,3.21-13.32,3.35-3.74.12-7.58.1-11.11-1.11-3.22-1.1-6-3.14-8.98-4.75-2.98-1.62-6.44-2.85-9.77-2.13,1.77-6.52,7.73-14.33,13.98-17.26"/>
        <path d="m351.73,209.76c1.03,1.38-.28,3.98-.77,5.44-.58,1.77-1.25,3.51-2.15,5.14-1.93,3.49-4.87,5.75-8.73,6.74s-8.21,1.07-12.22.9c-2.22-.09-4.43-.41-6.53-1.16s-3.96-1.9-5.83-3.02c-4.05-2.42-8.4-4.71-13.26-3.79l1.29,1.29c1.9-6.78,7.1-13.55,13.5-16.63,1.22-.59.15-2.4-1.06-1.82-6.87,3.3-12.42,10.62-14.46,17.89-.23.82.53,1.44,1.29,1.29,5.02-.95,9.44,2.36,13.55,4.71s8.36,3.34,13.09,3.37c4.21.03,8.7-.07,12.72-1.46s6.75-4,8.65-7.58c1.04-1.97,1.8-4.09,2.47-6.21.6-1.92,1.62-4.34.26-6.16-.8-1.07-2.63-.02-1.82,1.06h0Z"/>
      </g>
      <g>
        <path class="cls-8" d="m365.73,196.99c-4.08,8.27-9.02,10.84-11.68,11.78-7.55,2.69-18.11.46-28.08-2.77-1.45-.47-2.93-.95-4.45-.91-2.75.07-6,1.7-7.93-.22,4.82-7.25,7.47-13.07,15.78-16.11,1.74.39,1.4-4.17,3.76-4.99,5.37-1.87,14.15-1.42,18.13-.52,6.4,1.45,8.08,12.3,14.49,13.75Z"/>
        <path d="m364.82,196.46c-2.63,5.26-6.55,10.15-12.44,11.73-8.12,2.18-17.25-.4-25.02-2.84-2.3-.72-4.5-1.52-6.95-1.21-1.8.23-4.54,1.37-6.08,0l.16,1.27c2.75-4.15,5.17-8.74,8.98-12.05.85-.74,1.78-1.39,2.75-1.97.62-.36,1.25-.69,1.9-.99.25-.11.57-.21.79-.34.46-.28.29-.11.76-.23,1.77-.42,1.99-2.04,2.61-3.53.39-.92.76-1.42,1.72-1.71,1.25-.38,2.54-.62,3.83-.78,2.69-.33,5.43-.35,8.13-.18,1.98.12,4.35.17,6.18,1.05s3.05,2.5,4.15,4.07c2.44,3.49,4.66,8.16,9.16,9.28,1.31.33,1.87-1.7.56-2.03-4.13-1.02-6.1-5.88-8.4-9-1.15-1.55-2.45-3.08-4.18-4.01-1.84-.99-4.06-1.16-6.11-1.34-2.78-.25-5.6-.28-8.38-.04-2.15.19-5.14.34-6.97,1.61-.76.53-1.22,1.36-1.57,2.19-.31.74-.47,1.72-.97,2.36-.09.12.71-.11-.07-.04-.3.03-.55.14-.83.25-.61.24-1.21.5-1.8.78-1.24.6-2.42,1.31-3.52,2.14-4.62,3.49-7.39,8.72-10.53,13.46-.24.37-.17.98.16,1.27,1.4,1.25,3.07,1.36,4.86,1.1,2.36-.34,4.31-.8,6.67-.11,4.82,1.4,9.54,2.96,14.52,3.77,6.65,1.08,14.15,1.25,19.83-2.91,3.48-2.55,6-6.12,7.91-9.94.6-1.21-1.21-2.27-1.82-1.06Z"/>
      </g>
      <g>
        <path class="cls-8" d="m346.28,170.5c-4.86,1.39-9.04,4.51-12.48,8.13-2.67,2.8-5.09,6.33-4.72,10.13,8.2-2.54,17.33-.75,24.9,3.24,3.77,1.99,7.52,4.58,11.81,4.59,4.2,0,8.11-2.63,10.3-6.11s2.86-7.71,2.74-11.79"/>
        <path d="m346.01,169.48c-4.51,1.34-8.45,3.99-11.81,7.24s-6.51,7.22-6.17,12.03c.05.66.64,1.22,1.33,1.01,8.8-2.64,17.9-.31,25.73,4.03,3.56,1.97,7.41,4.18,11.64,3.79,3.73-.34,7.11-2.43,9.39-5.36,2.98-3.84,3.86-8.8,3.76-13.55-.03-1.35-2.13-1.36-2.1,0,.09,4.13-.56,8.45-3.02,11.89-2.18,3.05-5.78,5.17-9.59,4.95-4.12-.24-7.67-2.91-11.23-4.72s-7.47-3.17-11.47-3.81c-4.57-.73-9.23-.57-13.67.76l1.33,1.01c-.31-4.39,2.86-7.99,5.85-10.82,3.03-2.88,6.55-5.22,10.58-6.42,1.3-.38.74-2.41-.56-2.03h0Z"/>
      </g>
      <g>
        <path class="cls-8" d="m389.43,158.67c1.5,1.68.56,4.18-.18,6.29-1.28,3.62-2.69,7.44-5.72,9.88-4.15,3.34-10.18,3.19-15.46,2.17-4.81-.93-9.5-2.45-13.92-4.5-1.79-.83-3.59-1.76-5.56-1.95-1.49-.14-3.2.09-4.29-.91-1.45-1.32-.67-3.69.4-5.32,2.79-4.25,7.13-8.29,11.91-10.23"/>
        <path d="m388.68,159.42c1.39,1.75-.32,4.95-.97,6.72-.82,2.22-1.76,4.5-3.29,6.34-3.17,3.82-8.21,4.43-12.88,3.99-5.26-.5-10.56-2.13-15.4-4.21-2.28-.98-4.5-2.31-6.99-2.67-1.07-.16-2.27.01-3.31-.29-1.44-.42-1.46-1.7-1.01-2.92.88-2.45,3.05-4.66,4.9-6.43,2.09-1.99,4.49-3.7,7.16-4.82,1.23-.51.69-2.55-.56-2.03-5.18,2.16-10.18,6.34-12.9,11.31-1.09,2-1.64,4.94.63,6.38,1.01.64,2.23.71,3.39.77,1.75.08,3.24.51,4.83,1.24,5.79,2.64,11.76,4.83,18.1,5.65,5.39.7,11.46.13,15.29-4.18,2.02-2.27,3.19-5.1,4.21-7.92s2.34-5.84.3-8.41c-.84-1.06-2.32.44-1.49,1.49h0Z"/>
      </g>
      <g>
        <path class="cls-8" d="m374.81,133.37c4.37-.46,8.88.37,12.78,2.35,2.71,1.38,5.54,3.37,8.53,2.7,3.04-6.19.46-14.44-5.62-17.93-.89-.51-1.87-.94-2.9-.97-1.05-.04-2.06.32-3.04.67-3.11,1.12-6.33,2.31-8.69,4.58s-3.62,5.96-2.07,8.81c-6.68,3.3-12.53,8.2-16.87,14.14-1.38,1.88-2.65,4.26-1.75,6.4,4.42-1.02,9.06.03,13.35,1.46s8.51,3.24,13.02,3.8c4.5.56,9.51-.38,12.53-3.68,3.27-3.56,2.42-11.29,1.97-16.54-.1-1.2,1.08-2.91,1.06-3.77"/>
        <path d="m374.81,134.43c2.99-.29,5.97-.03,8.85.84,2.7.82,4.99,2.39,7.56,3.48,1.05.44,2.14.78,3.28.85,1.27.07,2.26-.02,2.8-1.25.86-1.98,1.24-4.17,1.13-6.33-.22-4.18-2.15-8.33-5.39-11.02-1.85-1.53-4.13-2.84-6.61-2.44s-5.16,1.63-7.4,2.77c-4.59,2.32-8.8,7.49-6.14,12.79l.38-1.44c-4.63,2.32-8.89,5.36-12.56,9.02-1.75,1.75-3.38,3.65-4.82,5.66s-2.64,4.54-1.74,7.04c.2.56.7.86,1.29.73,9.81-2.11,18.52,5.28,28.18,5.45,3.86.07,7.96-.98,10.79-3.74,2.51-2.45,3.02-6.15,3.1-9.49.05-2.14-.1-4.28-.28-6.41-.08-.99-.27-1.92.06-2.87.31-.9.77-1.71.85-2.68.11-1.35-1.99-1.34-2.1,0-.06.72-.54,1.44-.77,2.12-.27.77-.31,1.48-.23,2.28.15,1.73.3,3.46.36,5.2.11,3.17.2,7.28-1.98,9.86-2.52,2.98-6.84,3.8-10.55,3.6-4.58-.26-8.92-2.12-13.2-3.59-4.75-1.63-9.75-2.83-14.77-1.75l1.29.73c-.85-2.38.91-4.66,2.31-6.46s2.94-3.49,4.59-5.06c3.34-3.17,7.14-5.78,11.25-7.83.53-.27.62-.96.38-1.44-1.79-3.55,1.02-7.28,3.95-9.11,1.69-1.05,3.54-1.77,5.4-2.45.91-.33,1.83-.73,2.8-.87,1.2-.17,2.25.26,3.27.86,5.44,3.22,7.82,10.68,5.1,16.41l.63-.48c-1.95.36-3.78-.51-5.47-1.4-1.55-.81-3.06-1.65-4.7-2.28-3.45-1.31-7.19-1.76-10.86-1.41-1.34.13-1.35,2.23,0,2.1h0Z"/>
      </g>
      <g>
        <path class="cls-6" d="m100.57,218.52c-6.12,32.99-9.84,66.43-11.13,99.97-.11,2.91-.2,5.89.6,8.69,1.11,3.88,3.83,7.11,6.84,9.8,10.33,9.23,24.4,13.27,38.2,14.43,13.81,1.16,27.68-.27,41.53-.54,22.09-.43,45.25,1.9,65.3-7.4,4.6-2.13,9.2-5.15,11.12-9.84,1.42-3.45,1.19-7.32.94-11.04-1.97-29.46-5.87-58.53-7.85-87.99-.28-4.14-1.1-8.43-1.48-12.56-.36-3.97.6-5.55-3.7-6.65-9.74-2.51-27.16-2.09-37.21-2.08-28.65.01-57.3.16-85.94.44-4.45.04-16.51-.57-17.25,4.6"/>
        <path d="m99.5,218.23c-3.71,20.06-6.56,40.27-8.51,60.58-.97,10.1-1.72,20.23-2.24,30.36-.25,4.89-.83,9.97-.38,14.85.4,4.37,2.34,8.1,5.27,11.32,11.77,12.91,30.64,16.92,47.37,17.53,10.31.37,20.61-.4,30.91-.76,9.44-.33,18.89-.07,28.33-.19,9.06-.11,18.17-.6,27.05-2.5,4.41-.94,8.74-2.25,12.9-3.99,3.72-1.56,7.43-3.43,10.34-6.27s4.5-6.74,4.71-10.95c.24-4.88-.44-9.88-.82-14.74-.81-10.25-1.81-20.48-2.84-30.7s-2.07-20.44-2.97-30.67c-.45-5.09-.86-10.17-1.22-15.27s-1.16-9.69-1.61-14.55c-.22-2.35.32-5.36-1.93-6.89-1.21-.83-2.77-1.13-4.18-1.43-1.64-.35-3.29-.59-4.95-.8-7.68-.97-15.47-1-23.19-.98-19.42.03-38.84.08-58.26.19-10.33.06-20.65.14-30.98.24-3.24.03-6.48-.02-9.71.07-2.82.07-5.78.24-8.48,1.12-2.07.67-4.23,1.94-4.63,4.27-.24,1.4,1.89,1.99,2.14.59.38-2.2,3.1-2.83,4.96-3.2,2.7-.54,5.5-.58,8.24-.59,8.65-.02,17.31-.13,25.96-.19,19.99-.15,39.97-.23,59.96-.24,7.37,0,14.74-.13,22.11.11,3.73.12,7.47.32,11.18.76,1.64.19,3.28.44,4.9.77,1.21.25,2.95.43,3.89,1.31.68.64.58,1.75.61,2.61.06,1.93.28,3.85.54,5.77.63,4.76,1.08,9.49,1.44,14.28.73,9.84,1.66,19.67,2.63,29.49s1.99,19.62,2.9,29.44c.46,4.92.89,9.83,1.28,14.75s1,9.54.81,14.27c-.18,4.39-1.94,7.97-5.34,10.74-3.18,2.59-7.12,4.29-10.94,5.69-8.28,3.04-17.06,4.36-25.83,4.92-8.91.56-17.84.37-26.75.37-9.62,0-19.21.55-28.82.88-17.46.6-36.08-.15-51.35-9.68-3.47-2.17-6.8-4.76-9.45-7.9-1.34-1.58-2.5-3.39-3.18-5.36-.77-2.21-.9-4.54-.87-6.85.12-9.75.88-19.55,1.63-29.27,1.52-19.65,3.88-39.23,7.08-58.68.77-4.68,1.59-9.36,2.45-14.03.26-1.39-1.88-1.99-2.14-.59h0Z"/>
      </g>
      <g>
        <path class="cls-5" d="m252.04,295.95c-7.99,10.57-22.99,16.11-36.14,17.77-13.15,1.66-28.22,2.84-41.45,2.18-14.39-.71-26.86-3.62-41.38-4.43-15.11-.85-28.6-3.07-42.86-8.13l5.17-54.69c19.3,8.32,39.53,10.8,60.55,11s42-1.82,63.01-2.15c4.8-.08,9.72-.09,14.2-1.81,4.72-1.82,10.05-5.04,13.72-8.51l5.17,48.77Z"/>
        <path d="m251.32,295.53c-5.78,7.55-14.72,12.15-23.66,14.85-4.56,1.38-9.22,2.21-13.95,2.78-5.61.67-11.24,1.22-16.88,1.59-11.57.76-23.09.63-34.61-.75-5.63-.67-11.23-1.52-16.86-2.21s-11.61-1.02-17.44-1.49c-12.8-1.03-25.39-3.48-37.51-7.75l.61.8c.58-6.18,1.17-12.36,1.75-18.54.93-9.8,1.85-19.59,2.78-29.39.21-2.25.43-4.51.64-6.76l-1.25.72c18.4,7.89,38.3,10.68,58.2,11.07,21.87.43,43.69-1.74,65.54-2.11,5.42-.09,10.8-.19,15.87-2.33,4.7-1.98,9.16-4.76,12.89-8.24l-1.42-.59c.58,5.49,1.16,10.97,1.75,16.46.93,8.75,1.86,17.5,2.78,26.26.21,2.02.43,4.04.64,6.06.11,1.05,1.78,1.06,1.66,0-.58-5.49-1.16-10.97-1.75-16.46-.93-8.75-1.86-17.5-2.78-26.26-.21-2.02-.43-4.04-.64-6.06-.07-.71-.86-1.11-1.42-.59-3.31,3.09-7.23,5.57-11.34,7.45-4.54,2.08-9.26,2.51-14.19,2.6-10.62.2-21.22.7-31.82,1.23-20.38,1.02-40.98,1.96-61.24-1.09-10.94-1.65-21.71-4.48-31.89-8.85-.6-.26-1.19.05-1.25.72-.58,6.18-1.17,12.36-1.75,18.54-.93,9.8-1.85,19.59-2.78,29.39-.21,2.25-.43,4.51-.64,6.76-.04.38.29.69.61.8,10.95,3.86,22.29,6.26,33.83,7.44,5.94.61,11.91.8,17.85,1.44,5.81.62,11.58,1.49,17.37,2.24,11.74,1.52,23.42,1.97,35.25,1.31,5.9-.33,11.8-.86,17.67-1.54,4.84-.56,9.63-1.23,14.34-2.52,10.05-2.74,20.03-7.71,26.48-16.14.65-.85-.79-1.68-1.44-.84Z"/>
      </g>
      <g>
        <path class="cls-5" d="m253,219.68c-.07-1.97-.17-4.03-1.29-5.76-1.12-1.72-3.08-2.63-3.83-14.39,0-.01,0-.03,0-.05v-2.56c0-6.35-4.73-11.25-10.49-14.58-5.04-2.91-10.77-4.41-16.58-4.62l-20.5-.75-22.91-.74-18.31.06c-1.59-.04-3.18-.02-4.77.04l-31.11,1.32c-5.52.23-10.99,1.42-16.02,3.73-7.34,3.36-11.92,8.07-11.92,15.55v11.88c0,.33-.26.92-.35,1.12-.02.05-.03.09-.04.14-1.51,8.1-3.89,7.59-4.53,9.31-.63,1.68.11,3.67,1.74,4.75.09.06.19.1.3.13,3.27.82,5.26-1.74,7.7-3.62,2.83-2.18,3.97-3.01,6.89-4.49,2.92-1.48,7.25-1.44,9.16.95,1.29,1.61.91,1.73,1.02,3.69.1,1.8.76,2.45,2.51,3.14,2.47.98,6.59,1.05,9.13.23,3.87-1.26,4.83-1.3,7.3-4.61,1.14-1.53,2.13-3.28,4-4.14,3.76-1.73,8.15,1.18,10.53,4.21,2.38,3.02,4.52,3.09,8.7,3.79,3.01.5,6.02-.81,8.49-2.36,2.47-1.55,4.75-3.42,7.62-4.33,2.87-.91,6.64-.52,8.22,1.72.78,1.1.91,2.44,1.52,3.6,1.01,1.91,3.4,3.21,5.85,3.19,5.83-.05,8.84-6.36,14.34-8.01,3.71-1.11,11.2-1.6,11.23,1.75.04,4.26-2.36,5.9,1.44,6.76,5.6,1.27,6.5-3.44,11.24-6.21,1.49-.87,2.44-1.87,4.16-2.33,6.85-1.81,8.16,6.52,15.31,6.98,1,.06,2.06-.02,2.86-.54,1.33-.86,1.41-2.52,1.36-3.94Z"/>
        <path d="m254.06,219.68c-.08-2.27-.27-4.62-1.6-6.54-.38-.55-.81-1.06-1.15-1.64-1.58-2.7-1.87-6.22-2.15-9.25-.36-3.8.11-7.57-1.52-11.15-2.04-4.48-6.22-7.8-10.46-10.09-5.03-2.72-10.65-4.11-16.35-4.34-1.75-.07-3.49-.13-5.24-.19-5.08-.18-10.15-.38-15.23-.55-8.22-.28-16.46-.76-24.68-.73-9.86.03-19.69.03-29.55.44-6.24.26-12.48.53-18.72.79-1.38.06-2.77.11-4.16.18-5.64.26-11.2,1.45-16.36,3.78-4.08,1.84-8.09,4.44-10.46,8.34-1.72,2.83-2.19,5.98-2.19,9.23v9c0,.87.06,1.62-.2,2.44-.68,2.06-.87,4.24-1.96,6.17-.49.86-1.14,1.46-1.82,2.16-.97,1.01-1.32,2.34-1.08,3.73.41,2.35,2.29,4.13,4.71,4.01s4.12-1.7,5.82-3.14c1.89-1.6,3.9-3.11,6.06-4.33s4.39-2.15,6.89-1.67c1.07.21,2.04.67,2.75,1.52s.67,1.39.69,2.41c.05,2.12.76,3.57,2.74,4.45,4.23,1.88,9.08,1.08,13.25-.52,1.67-.64,2.97-1.63,4.1-3.02,1.59-1.94,2.85-4.75,5.6-5.17,2.58-.39,5.16,1.29,6.9,3.02,1.55,1.53,2.64,3.24,4.71,4.13,1.95.84,4.28,1.16,6.38,1.37,2.85.28,5.64-.81,8.05-2.24s4.75-3.44,7.5-4.42c2.07-.74,4.86-.95,6.73.42,1.05.77,1.31,1.97,1.74,3.13s1.04,2.16,1.99,2.97c1.8,1.53,4.22,2.13,6.53,1.79,4.5-.67,7.28-4.58,10.95-6.82,1.71-1.04,3.62-1.52,5.59-1.76,1.77-.21,3.83-.37,5.54.26,3.16,1.15-.94,5.72,1.14,7.84,1.26,1.29,3.79,1.49,5.46,1.21,1.86-.32,3.3-1.51,4.59-2.8.69-.69,1.36-1.41,2.09-2.07.99-.89,2.1-1.53,3.2-2.27,1.82-1.23,3.8-2.28,6.03-1.51,1.59.55,2.82,1.82,4.02,2.94,1.34,1.24,2.74,2.46,4.43,3.2,1.78.79,4.03,1.19,5.92.57,2.33-.77,2.84-3.08,2.78-5.27-.03-1.36-2.14-1.36-2.11,0,.03,1.2.06,2.68-1.23,3.24-1.02.44-2.44.21-3.47-.08-1.73-.49-3.13-1.6-4.44-2.79-2.53-2.31-5.02-4.65-8.72-4.07-2.32.36-4.35,1.89-6.23,3.21-1.72,1.21-3.04,2.8-4.59,4.2s-3.46,1.86-5.51,1.17c-.5-.17-.69-.21-.78-.67-.12-.6.31-1.52.42-2.1.31-1.6.69-3.59-.56-4.89-1.09-1.12-2.82-1.4-4.3-1.52-3.82-.3-7.97.49-11.14,2.68s-6.36,6.36-10.72,6.1c-1.21-.07-2.44-.5-3.39-1.27-1.15-.93-1.45-2.2-1.96-3.52-.79-2.06-2.36-3.38-4.5-3.9-5.32-1.29-9.47,2.17-13.7,4.77-2.59,1.59-5.23,2.51-8.28,2.02-1.98-.32-4.17-.51-5.83-1.74-.82-.61-1.41-1.43-2.07-2.19-.8-.92-1.72-1.73-2.71-2.44-1.91-1.36-4.28-2.3-6.65-1.98s-4.04,1.9-5.42,3.79c-1.14,1.56-2.22,3.29-4,4.18-3.66,1.83-9.06,2.77-12.81.75-1.75-.94-.8-3-1.36-4.57-.68-1.89-2.56-3.23-4.45-3.69-4.53-1.12-8.77,1.47-12.26,4.06-1.91,1.42-3.7,3.38-5.83,4.46-1.09.55-2.52.79-3.41-.21-.73-.81-1.04-2.15-.67-2.97.22-.48.96-1.02,1.44-1.56.94-1.07,1.56-2.34,2.04-3.67.43-1.2.72-2.44.98-3.68.15-.7.48-1.34.52-2.07.05-.89,0-1.8,0-2.7v-8.5c0-3.41.78-6.63,2.99-9.31,3.1-3.76,7.89-6.03,12.43-7.5,3.89-1.26,7.91-1.87,11.99-2.05,4.97-.21,9.93-.42,14.9-.63l15.08-.64c4.66-.2,9.36-.08,14.03-.1,9.45-.03,18.86.27,28.31.57,8.22.27,16.44.56,24.66.88,5.06.2,10.08,1.35,14.61,3.65,4.27,2.17,8.61,5.37,10.55,9.9.78,1.82.95,3.69.95,5.64s.14,3.79.36,5.68c.34,2.96.74,6.18,2.24,8.82.32.56.71,1.05,1.09,1.57,1.22,1.67,1.37,3.64,1.44,5.65.05,1.35,2.16,1.36,2.11,0Z"/>
      </g>
      <text class="cls-11" transform="translate(117.41 302.05) scale(1.15 1)"><tspan x="0" y="0">HY</tspan><tspan class="cls-10" x="12.33" y="0"> </tspan><tspan class="cls-13" x="14.1" y="0">BENMARMELA</tspan><tspan class="cls-12" x="89.38" y="0">D</tspan><tspan x="95.39" y="0">E</tspan></text>
      <g>
        <polyline class="cls-3" points="118.48 268.21 106.85 268.58 116.88 286.42 119.75 286.31 132.05 267.77 120.12 268.01 120.03 272.13 123.8 272.01 118.94 279.02 114.81 272.52 118.39 272.41 118.48 268.21"/>
        <path class="cls-3" d="m135.86,267.74c.93-.11,1.63-.26,1.73-.28.84-.18,1.87-.91,2.09-1.89.28-1.23-.81-2.55-2.04-2.83-.99-.23-2.13.15-3.22.79-.96.56-2.05,1.55-2.11,1.55-.04,0,.79-.85.84-.96.4-.93.46-2.54-.59-3.31-1.03-.75-2.58-.31-2.68-.28-1.93.58-2.65,2.71-2.45,4.09.05.36.16,1.12.82,1.61.09.07.21.13.34.18-.07-.02-.14-.05-.23-.08-.44-.16-.38-.45-.73-.51-.58-.1-1.53.12-2.07.26-1.48.37-2.18.95-2.36,1.42-.3.78.23,1.77,1,2.2.75.42,1.76.33,2.45.26.2-.02.36-.07.5-.07.08,0,.16,0,.24,0-.04,0-.09.01-.13.02-.59.08-.95.46-1.09.67-.27.39-.54.64-.43,1.87.02.26.33.87,1.23,1.18,1.12.39,2.27-.33,2.95-.75.35-.22,1.37-.85,1.77-1.97.31-.87.11-1.65.18-1.65.09,0-.03,1.33.82,2.56.21.31.81,1.14,2,1.53.1.03,2.16.69,3.5-.39.72-.58.83-1.35.86-1.61.17-1.32-.75-2.61-1.91-3.11-.9-.39-1.96-.3-1.95-.39,0-.05.28-.07.68-.12Zm-4.45.1c-.41,0-.84-.25-.84-.47s.4-.43.82-.43.86.22.86.43-.43.47-.84.47Z"/>
        <path class="cls-3" d="m162.35,280.41c.09-3.29-2.35-6.04-4.12-7.31-1.18-.84-3.88-2.6-7.31-2.36l.25-2.21-5.64.84-.1.87-.46,4.09-1.06,7.74-.34,4.35,5.1.2-.15-1.42c2.88,1.85,9.62,1.51,11.81-.54.34-.32,1.96-1.91,2.02-4.25Zm-4.67-1.15c-.32,2.12-4.54,3.94-8.09,2.49l.85-7.28c4.13-.42,7.56,2.68,7.24,4.8Z"/>
        <path class="cls-3" d="m132.07,286.42c4.13.08,7.32-.3,15.25.1l-1.05-5.27-4.46.51-3.69.45,4.21-8.23,2.4-3.51-5.9-1.59-6.14,13.35s-.91,4.2-.62,4.2Z"/>
        <polygon class="cls-3" points="123.01 286.42 132.07 286.42 134.46 271.02 129 271.03 123.01 286.42"/>
      </g>
      <polygon class="cls-3" points="189.85 286.31 178.05 286.31 177.97 280.48 181.46 280.3 180.41 275.53 177.32 278.88 174.92 275.58 173.11 280.41 176.55 280.43 176.55 286.31 163.27 286.31 169.11 265.63 173.53 265.63 177.93 272.91 182.51 266.1 187.35 265.63 189.85 286.31"/>
      <g>
        <path d="m231.01,269.87l.94-3.46c.26.77,1.02,1.37,1.87,1.69s1.8.4,2.73.41c-1.92,2.24-3.16,4.92-3.59,7.68-1-.54-2.22-.77-3.39-.63.32-.88,1.36-1.79.97-2.65-.53-1.17-.87-1.1-1.45-1.13-.88-.04-1.55.35-2.09.96s-.39,1.45-.18,2.19c.08.28,1.28.71,1.62.77,1.74.3,4.07-.82,9.48,3.22,2.97,2.22,1.51,5.9-.07,7.05-.37.27-1.05.6-2.44.6s-2.47-.18-3.14-.3c-.47-.09-1.21-.75-1.74-1.21-.35-.3-1.29-1.02-1.44-1.91l.02.04c.25.72.53,1.37.91,2.05.24.42.53.85,1.01,1.06-1.54-.03-4.68-.03-6.42-.03-.35-.6-4.88-8.16-5.45-8.97v.02c1.13.13,2.13.12,3.28.13,1.15.01,2.41-.13,3.55-.25-.51.85-.2,2,.68,2.57.9.58,3.18,1.38,3.18,1.38.7.3,1.39.3,2.09.3.36,0,1.62-.31,1.74-.6s-1.39-2.72-4.88-2.72c-1.74,0-3-.96-4.53-1.51-.95-.34-1.45-1.14-2.12-1.83-.44-.45-.83-.96-.92-1.55-.07-.47.05-.94.2-1.4.27-.83.6-1.64,1.13-2.37s1.24-1.37,2.14-1.74c.71-.29,1.49-.41,2.28-.45,1.52-.07,3.19.21,4.48.92"/>
        <path class="cls-2" d="m231.13,269.9l.94-3.46h-.23c.78,1.85,2.94,2.16,4.72,2.19l-.09-.21c-1.37,1.64-2.45,3.49-3.1,5.53-.16.5-.21,1.09-.41,1.57-.24.61-.35.33-.92.15-.46-.14-.93-.23-1.41-.26-.09,0-.81.06-.85-.03-.03-.08.39-.66.43-.73.35-.57.66-1.1.45-1.77-.16-.5-.53-1.04-1.06-1.18-1.21-.31-2.85.51-3.06,1.8-.45,2.76,2.8,2.26,4.53,2.42s3.28.84,4.74,1.71c2.04,1.22,4.14,2.73,3.64,5.4-.41,2.16-1.86,3.39-4.03,3.41-1.15.01-2.69.04-3.7-.59-.94-.59-2.22-1.65-2.51-2.74l-.22.09c.58,1.13.79,2.51,1.99,3.19l.06-.23c-1.99-.04-3.97,0-5.96-.03-.51-.01-.51-.2-.78-.65-.32-.54-.65-1.08-.97-1.62-1.33-2.22-2.59-4.51-4.06-6.64-.05-.07-.17-.09-.21,0v.02c-.05.09,0,.17.1.18,2.05.21,4.08.11,6.13-.05.61-.05.38-.11.38.26,0,.28-.07.52-.02.81.09.49.35.92.72,1.24.87.75,2.2,1.11,3.26,1.5,1.13.41,2.36.53,3.51.1.52-.19.78-.36.53-.88-.36-.75-1.19-1.36-1.91-1.73-1.43-.74-2.91-.47-4.4-.91-.86-.25-1.65-.69-2.47-1.05-1.02-.44-1.64-.91-2.37-1.72-.42-.46-.92-.91-1.11-1.52-.23-.74.08-1.55.34-2.24.46-1.21,1.18-2.34,2.29-3.05,2.08-1.32,5.23-.99,7.33.1.14.07.26-.14.12-.21-2.22-1.15-5.55-1.48-7.71-.01-1.73,1.17-3.6,4.37-2.15,6.31.67.9,1.54,1.88,2.58,2.34,1.24.54,2.53,1.28,3.89,1.47,1.48.21,2.81.16,4.1,1.04.37.25.72.56.99.91.34.43.47.64-.12.91-1.2.55-2.57.2-3.74-.23-1.47-.55-4.31-1.43-3.25-3.57.04-.07,0-.19-.11-.18-1.68.17-3.33.28-5.01.24-.39,0-1.86-.26-1.81.21.02.17.31.49.4.64.97,1.56,1.92,3.14,2.87,4.71.46.76.92,1.52,1.37,2.28.18.31.41.98.71,1.19.2.15.57.06.82.06.66,0,1.32,0,1.98,0,1.24,0,2.49,0,3.73.03.12,0,.17-.17.06-.23-1.15-.65-1.35-2.03-1.9-3.1-.06-.12-.26-.04-.22.09.31,1.17,1.45,2.04,2.39,2.72,1.06.77,2.6.77,3.86.78,1.06,0,2.16-.11,2.98-.85.77-.7,1.28-1.73,1.48-2.74.58-3.01-1.96-4.7-4.28-5.98-1.81-1-3.66-1.48-5.72-1.48-1.26,0-3.01-.16-2.92-1.85.07-1.22,1.84-2.43,3.02-1.76,1.52.87.12,2.48-.31,3.48-.03.08,0,.19.11.18,1.18-.11,2.27.08,3.33.61.06.03.17.01.18-.07.47-2.84,1.71-5.43,3.56-7.63.07-.08.03-.21-.09-.21-1.64-.03-3.76-.27-4.49-2.01-.04-.1-.2-.13-.23,0l-.94,3.46c-.04.15.19.22.23.06h0Z"/>
      </g>
      <path class="cls-3" d="m198.58,270.31c.09-.19.16-.44.14-.71-.05-.78-1.05-1.59-1.03-1.36.05.59.04,1.08-.29,1.19-.14.04-.34-.09-.44-.21-.18-.22-.09-.51,0-.81.33-1.06.38-1.11.44-1.36.05-.2.68-1.18.34-1.99-.11-.28-.54,3.39-.69-1.02-.04-1.22-1.08-.89-1.62-1.19-.47-.26-.68-.73-.05-1.53.44-.55.69-.59.44-.55-.48.08-1.22.47-1.32,1.1-.09.6-.2,1.43.88,2.97.35.5.74.8.69,1.32-.04.35-.29.8-.59.81-.19,0-.36-.16-.44-.3-.19-.33.06-.7,0-.72-.04-.01-.2.21-.34.51-.07.15-.23.5-.24.89-.04.9.07,1.56.49,1.65,1.17.25-.78,2.04-.88.93h0c-.04-.13-.09-.78-.12-.84-.14-.3-.3-.52-.34-.51-.06.02.19.39,0,.72,0,.01-.01.13-.02.27-.01.2-.2.36-.43.36h-.35c-.12-.16-.21-.39-.23-.58-.05-.51.33-.82.69-1.32,1.08-1.54.58-2.89.44-3.48-.05-.21-.22-.77-.64-.55-.24.13.11.13.15.25.29.93.03,1.49-.24,1.91-.2.3-.15.26-.93,1.27-.38.5-.57.74-.69,1.02-.33.81-.15,1.58-.1,1.78.05.19.09.27.26.79l-.57.99c0-.08-.44.15-.55-.26-.14-.52.04-1.7.05-1.82.02-.23-.93,1.72-.98,2.5-.02.28.53.87.62,1.06l-7.44,12.81h11.77s.2-3.78.2-3.78h-4.18s1.91-3.05,1.91-3.05h5.48l1.84,3.05h-4.14s.32,3.78.32,3.78h11.25c-1.7-3.84-1.69-3.81-5.51-11.45-.39-.77-.1-2.55-.88-4.07-.55-1.07-1.96-2.55-1.42-1.7.19.81.76,1.91.83,2.5.11.92-.37,1.13-.59,1.1l-.03-.03c-.35-.39-.69-.29-.92-.95-.1-.3-.13-.62-.09-.93l.06-.47Zm-5.19,6.25l1.64-3.06,1.98,3.06h-3.62Z"/>
      <path class="cls-3" d="m223.68,277.53c-.66-3.82-3.97-6.58-6.2-7.74-1.48-.77-4.84-2.34-8.53-1.45l-.24-2.6-5.97,1.96.09,1.02.44,4.82.63,9.15.29,3.4,5.85.06-.38-.66c3.58,1.64,10.87.06,12.78-2.69.3-.43,1.69-2.56,1.23-5.27Zm-12.49,3.59l-.7-7.62c2.31-.27,3.91.02,4.89.58,1.05.6,1.41,1.06,2,2.32,1.8,3.84-1.86,4.85-6.19,4.72Z"/>
      <ellipse class="cls-3" cx="163.44" cy="273.13" rx="3.83" ry="3.32"/>
      <g>
        <path d="m218.84,264.82c-1.13.11-2.26.38-3.38.55-1.12.17-2.29.24-3.38-.05,1.1.61,2.5.87,3.37,1.71,1.04.99,1.67,1.55,2.33,2.62.2.32.12.73.29,1.06,1.21-.35,2.56-.32,3.75.08.12-.6,0-1.22-.23-1.79s-.58-1.1-.93-1.63c-.61-.91-1.04-1.74-1.81-2.56"/>
        <path class="cls-2" d="m218.84,264.7c-2.23.23-4.48,1.05-6.73.5-.13-.03-.22.16-.09.22,1.23.66,2.56.94,3.59,1.93.45.43.92.86,1.33,1.34.23.27.47.57.65.88.21.37.2.77.36,1.16.02.06.08.1.15.08,1.22-.34,2.48-.31,3.68.08.06.02.14-.02.15-.08.19-1.16-.33-2.2-.94-3.15-.65-1-1.25-2.06-2.06-2.94-.11-.12-.28.06-.17.17.72.79,1.25,1.72,1.84,2.61.64.97,1.31,2.03,1.1,3.25l.15-.08c-1.24-.4-2.55-.43-3.81-.08l.15.08c-.14-.36-.12-.75-.3-1.09-.13-.26-.33-.51-.51-.75-.43-.56-.95-1.05-1.46-1.54s-1.04-.9-1.72-1.2-1.39-.53-2.04-.88l-.09.22c2.28.56,4.53-.26,6.79-.49.15-.02.16-.26,0-.24h0Z"/>
      </g>
      <g>
        <path class="cls-7" d="m248.44,204.65c-6.09.68-9.74.61-15.86.98-19.46,1.18-35.5-1.31-53.64-1.31-27.48,0-56.02,2.25-83.47,1.31v-2.95c27.46.94,55.86-1.26,83.34-1.26,18.13,0,34.18,2.49,53.64,1.31,6.12-.37,9.53-.35,15.62-1.03l.38,2.95Z"/>
        <path d="m248.44,204.37c-4.49.49-9,.63-13.51.85-5.09.25-10.15.48-15.25.44-9.46-.09-18.9-.84-28.34-1.29-20.31-.96-40.68.32-60.99.88-11.63.32-23.26.49-34.89.1l.28.28v-2.95l-.28.28c20.66.69,41.33-.33,61.98-.91,10.14-.28,20.29-.54,30.43-.16,9.42.36,18.82,1.14,28.24,1.37,5.61.14,11.22.05,16.82-.28,5.05-.29,10.1-.45,15.13-1.01l-.28-.28.38,2.95c.04.35.6.35.55,0l-.38-2.95c-.02-.14-.11-.3-.28-.28-4.41.49-8.84.67-13.27.9-5.08.26-10.14.49-15.23.44-9.39-.09-18.75-.83-28.12-1.28-20.37-.97-40.8.3-61.17.84-11.6.31-23.21.47-34.8.08-.15,0-.28.13-.28.28v2.95c0,.15.13.27.28.28,20.66.69,41.32-.36,61.97-.95,10.11-.29,20.24-.56,30.35-.18,9.42.35,18.81,1.14,28.24,1.37,5.69.14,11.37.06,17.05-.27,5.13-.3,10.26-.39,15.37-.95.35-.04.35-.59,0-.55Z"/>
      </g>
      <path class="cls-2" d="m237.01,222.94c.26,7.41.96,14.8,1.08,22.22.03,1.9,2.99,1.91,2.96,0-.11-7.42-.82-14.81-1.08-22.22-.07-1.9-3.03-1.91-2.96,0h0Z"/>
      <path class="cls-2" d="m246.93,313.67c1.91,0,1.91-2.96,0-2.96s-1.91,2.96,0,2.96h0Z"/>
      <path class="cls-2" d="m245.67,317.76c0,5.43.09,11.58-4.76,15.09-4.51,3.27-10.05,4.99-15.23,6.87-1.78.64-1.01,3.51.79,2.86,5.7-2.07,11.87-3.97,16.7-7.74,5.28-4.13,5.46-10.9,5.46-17.07,0-1.91-2.96-1.91-2.96,0h0Z"/>
    </g>
  </g>
</svg>